<svg width="68" height="90" viewBox="0 0 68 90" fill="none" xmlns="http://www.w3.org/2000/svg">
<g clip-path="url(#clip0_4_3496)">
<path d="M7.24882 42.0248C24.0215 40.2184 40.9382 42.9913 57.6698 40.4927C58.4514 40.3745 58.1182 39.1548 57.3407 39.2729C40.7284 41.7505 23.9063 38.9648 7.24882 40.7586C6.46716 40.843 6.45893 42.1092 7.24882 42.0248Z" fill="#727272"/>
<path d="M7.08426 40.784C5.4469 41.3074 5.6526 43.5021 6.52065 44.667C7.94409 46.5747 11.1407 46.6169 13.2264 46.4144C14.0122 46.3384 14.0163 45.0722 13.2264 45.1482C11.8771 45.279 10.4783 45.2663 9.16594 44.8696C8.48302 44.6628 7.76307 44.3716 7.37224 43.7131C7.17066 43.3713 6.78394 42.2064 7.41338 42.008C8.17036 41.7632 7.84535 40.5392 7.08426 40.784Z" fill="#727272"/>
<path d="M54.7818 40.8895C55.6498 40.8346 56.4891 40.6827 57.353 40.5645C58.723 40.3746 59.4265 40.7544 59.6651 42.2317C59.8625 43.4599 59.1097 43.8186 58.0483 44.1647C57.5464 44.3293 57.0198 44.4306 56.5014 44.5361C55.115 44.8147 53.7245 44.954 52.3134 45.0046C51.5235 45.0342 51.5194 46.3004 52.3134 46.2708C54.7201 46.1822 61.4793 46.0893 61.216 42.1852C61.1502 41.2103 60.2328 39.8639 59.373 39.4249C58.0894 38.7665 56.09 39.5389 54.7777 39.6233C53.9919 39.6739 53.9878 40.9401 54.7818 40.8895Z" fill="#727272"/>
<path d="M9.05488 46.1441C8.8862 48.8242 5.92414 50.3394 4.3526 52.1796C3.1184 53.6273 2.1475 55.2945 1.44401 57.0714C-0.0699346 60.8784 -0.357913 65.1455 0.411401 69.1593C1.99528 77.3938 8.05929 84.189 15.6331 87.1055C16.3778 87.3925 16.6987 86.1685 15.9623 85.8857C8.09632 82.8553 1.98294 75.2623 1.30002 66.5552C0.975017 62.4189 1.82661 58.1139 4.07696 54.6318C5.94471 51.7449 10.0546 49.8963 10.2891 46.1441C10.3384 45.3338 9.10425 45.3338 9.05488 46.1441Z" fill="#727272"/>
<path d="M55.8226 45.6039C55.8226 48.934 58.1799 51.0233 60.5784 52.8846C62.6395 54.48 64.2357 56.0332 65.2519 58.536C66.1364 60.7096 66.6259 63.0563 66.737 65.4072C67.1402 74.0553 62.2445 82.083 54.7201 85.8604C54.0084 86.2192 54.6296 87.3123 55.3413 86.9536C62.3309 83.4462 67.2595 76.3176 67.9177 68.3321C68.2509 64.293 67.568 59.8444 65.5686 56.3033C63.3677 52.3992 57.0568 50.6096 57.0527 45.6039C57.0568 44.7894 55.8226 44.7894 55.8226 45.6039Z" fill="#727272"/>
<path d="M15.267 86.1769C14.4688 87.996 15.9005 89.5661 17.6777 89.6505C19.6072 89.7476 21.6436 89.2876 23.5772 89.2031C25.8193 89.1018 28.0614 89.0976 30.3036 89.1314C38.6714 89.2622 47.0351 89.9164 55.3659 88.7515C55.6498 88.7135 55.7938 88.3928 55.8185 88.1395C55.8843 87.4305 55.8267 86.9071 55.6251 86.2402C55.3906 85.4636 54.2017 85.7971 54.4362 86.5779C54.646 87.0886 54.6953 87.612 54.5843 88.1395C54.7365 87.9369 54.8846 87.7344 55.0368 87.5275C48.5408 88.435 41.9873 88.2071 35.4543 87.996C32.2865 87.8947 29.1146 87.8019 25.9468 87.8568C24.4987 87.8821 23.0506 87.9412 21.6025 88.0425C20.8126 88.0973 20.0268 88.1733 19.2411 88.2535C18.661 88.3126 15.4439 88.8233 16.3284 86.8058C16.6534 86.0756 15.592 85.4341 15.267 86.1769Z" fill="#727272"/>
<path d="M7.08016 52.7917C2.05287 59.1353 1.66205 67.9902 6.17508 74.7433C6.39724 75.0767 6.93205 74.7602 6.7099 74.4225C2.36142 67.9185 2.66174 59.3675 7.52035 53.2349C7.76308 52.9268 7.33111 52.4752 7.08016 52.7917Z" fill="#727272"/>
<path d="M7.41338 77.0941C7.81655 77.6934 8.27731 78.2463 8.79156 78.7486C9.07954 79.0272 9.51562 78.584 9.22764 78.3012C8.75042 77.8369 8.32257 77.3305 7.94408 76.7776C7.72193 76.4441 7.18711 76.7565 7.41338 77.0941Z" fill="#727272"/>
<path d="M10.865 80.7366C11.2641 80.7366 11.2641 80.1035 10.865 80.1035C10.466 80.1035 10.466 80.7366 10.865 80.7366Z" fill="#727272"/>
<path d="M54.6296 45.6378C54.3128 46.8533 54.0413 48.0773 54.5062 49.2928C54.9381 50.4197 55.8144 51.4369 56.559 52.3697C58.3445 54.5982 61.9977 56.8478 62.1705 59.9542C62.1911 60.3594 62.8082 60.3636 62.7876 59.9542C62.6601 57.6286 60.9898 56.1387 59.4512 54.6277C58.4597 53.6528 57.5258 52.6187 56.6701 51.5129C56.0941 50.7658 55.4441 49.9766 55.1109 49.0776C54.7036 47.9844 54.9381 46.9082 55.222 45.8108C55.3248 45.4141 54.7283 45.2452 54.6296 45.6378Z" fill="#727272"/>
<path d="M62.4379 61.423C62.5243 62.2334 62.6107 63.0437 62.6971 63.8541C62.7382 64.255 63.3594 64.2593 63.3141 63.8541C63.2278 63.0437 63.1414 62.2334 63.055 61.423C63.0138 61.022 62.3967 61.0178 62.4379 61.423Z" fill="#727272"/>
<path d="M62.4955 65.5212C62.5408 65.7576 62.5037 65.9813 62.4173 66.2007C62.3556 66.3611 62.4873 66.5468 62.6313 66.589C62.8082 66.6397 62.948 66.5257 63.0097 66.3696C63.1373 66.0404 63.1537 65.6985 63.0879 65.3524C63.018 64.9557 62.4215 65.1245 62.4955 65.5212Z" fill="#727272"/>
<path d="M35.7423 60.8911C37.2151 58.021 39.9879 56.1429 43.2091 56.3075C47.0434 56.5016 51.0751 59.9246 48.3887 63.9679C46.813 66.3357 43.9826 67.8678 41.8968 69.7333C39.5806 71.8057 37.4619 74.089 35.5078 76.5286C35.0059 77.1532 35.8739 78.0522 36.3799 77.4233C39.3585 73.705 42.7278 70.5606 46.4304 67.623C48.9029 65.6562 51.6387 62.6722 50.1371 59.2155C48.8947 56.3539 45.4636 54.9484 42.5715 55.0328C39.1651 55.1341 36.2442 57.1938 34.6726 60.2495C34.3065 60.9713 35.372 61.6128 35.7423 60.8911Z" fill="#727272"/>
<path d="M35.4502 59.9077C32.8131 56.8647 29.5219 53.7287 25.2516 53.9566C22.0838 54.1255 19.3563 56.5903 18.8996 59.836C18.336 63.7907 21.2158 67.2601 24.0215 69.5519C27.469 72.3671 32.6691 73.342 35.2486 77.1575C35.697 77.8244 36.7666 77.1913 36.3141 76.5202C34.7055 74.1397 32.3647 72.9158 29.8798 71.6833C26.7203 70.1175 23.606 68.1802 21.5737 65.1582C19.3069 61.7944 19.6813 56.6494 24.075 55.417C28.3741 54.2141 31.9944 57.827 34.5739 60.8025C35.1046 61.4145 35.9767 60.5155 35.4502 59.9077Z" fill="#727272"/>
</g>
<g clip-path="url(#clip1_4_3496)">
<path d="M31.4719 13.0156C30.283 15.2345 28.4688 17.0123 26.1405 17.9326C25.2313 18.2941 24.0342 18.273 24.1535 16.9912C24.2275 16.1927 25.0668 15.4993 25.6756 15.1253C26.7123 14.4865 28.041 14.2764 29.1558 13.7804C29.8799 13.4568 29.2546 12.3684 28.5347 12.692C26.5436 13.5787 24.3633 13.7888 23.232 15.9406C22.6273 17.0921 22.4298 18.6933 23.7915 19.3489C25.2683 20.0592 27.3005 18.9118 28.5264 18.1049C30.2295 16.987 31.5665 15.4615 32.5333 13.6502C32.92 12.9399 31.8545 12.3011 31.4719 13.0156Z" fill="#46A358"/>
<path d="M28.8967 12.4901C27.3993 12.6582 25.9142 12.6666 24.4291 12.3808C23.8861 12.2757 23.3472 12.1329 22.8206 11.9606C22.3763 11.8261 21.9485 11.6622 21.5248 11.4646C20.8954 10.6493 20.9571 10.1955 21.7181 10.0946C23.9478 8.33789 27.4322 10.1828 29.6207 11.036C30.3653 11.326 30.6862 10.1072 29.9498 9.82142C28.0451 9.07755 25.9553 7.95966 23.8614 8.19921C22.6602 8.33369 19.8916 8.86742 19.5707 10.4098C18.8303 13.982 27.1072 13.9568 28.8967 13.7551C29.6783 13.6626 29.6865 12.4018 28.8967 12.4901Z" fill="#46A358"/>
<path d="M30.353 9.84239C28.4812 8.32524 26.8192 5.96337 26.9097 3.40397C26.9509 2.26506 27.6584 1.78176 28.6828 2.29448C29.2464 2.57605 29.6372 3.2947 29.9457 3.83684C30.6615 5.10603 30.9618 6.55594 31.2251 7.98063C31.3732 8.77492 32.5621 8.43871 32.414 7.64442C32.019 5.51789 31.4555 3.30311 29.9169 1.71452C29.0078 0.777331 27.4939 -0.298541 26.4243 0.962246C23.9231 3.90828 27.1977 8.87999 29.4808 10.7333C30.0979 11.2335 30.9783 10.3467 30.353 9.84239Z" fill="#46A358"/>
<path d="M32.3852 7.99358C32.6567 5.96791 33.5206 2.11411 35.7996 1.4585C37.9182 0.853323 37.7084 4.33309 37.116 5.48461C36.5195 6.64454 35.3471 7.73302 34.4955 8.70382C33.969 9.3048 34.837 10.2 35.3676 9.59478C36.5894 8.19951 38.416 6.59831 38.6792 4.63568C38.8849 3.11433 38.7738 0.815499 37.1325 0.14308C35.635 -0.470503 34.1541 0.924767 33.3025 2.02165C32.0478 3.63546 31.4637 5.63591 31.1922 7.64896C31.0852 8.45166 32.2741 8.79628 32.3852 7.99358Z" fill="#46A358"/>
<path d="M35.454 9.75442C36.8897 8.52726 39.5555 7.67413 41.3079 8.77942C43.5787 10.2167 40.3618 11.0783 39.3004 11.1497C38.165 11.2295 37.0296 11.1581 35.9024 11.0236C35.1167 10.9312 35.1208 12.1919 35.9024 12.2844C37.7454 12.5029 40.2342 12.7845 41.9497 11.8515C43.0152 11.2716 43.7803 9.8679 43.1262 8.68696C42.394 7.36313 40.333 7.04373 38.996 7.08156C37.3381 7.13199 35.8448 7.7876 34.586 8.86347C33.9731 9.38459 34.8493 10.2756 35.454 9.75442Z" fill="#46A358"/>
<path d="M35.5857 12.2422C36.8568 12.7213 38.1198 13.4441 38.8438 14.6629C39.7488 16.1927 39.7694 19.0084 37.1366 18.4831C34.8205 18.0208 33.1462 15.5076 32.6731 13.3265C32.5004 12.5364 31.3115 12.8684 31.4843 13.6627C31.9039 15.6043 32.9529 17.319 34.5243 18.5083C35.7585 19.4455 37.9264 20.5634 39.3786 19.5001C40.8719 18.4074 40.8719 16.1464 40.1972 14.5915C39.3992 12.7591 37.7002 11.6959 35.923 11.0234C35.1661 10.7461 34.8452 11.9648 35.5857 12.2422Z" fill="#46A358"/>
<path d="M23.1045 15.7137C19.5008 17.9326 16.8433 20.4038 16.2139 24.8502C15.5269 29.679 16.6253 34.7263 17.6291 39.4291C17.7977 40.2234 18.9866 39.8871 18.8179 39.0928C17.9294 34.9322 17.0202 30.6204 17.2958 26.3379C17.5961 21.6688 19.9657 19.1178 23.7216 16.8063C24.4044 16.3861 23.7874 15.2934 23.1045 15.7137Z" fill="#46A358"/>
<path d="M39.0083 14.2889C44.0477 14.6923 47.6143 18.8277 48.9678 23.564C50.4405 28.7207 49.6178 34.1505 48.8156 39.3449C48.6922 40.1392 49.881 40.4796 50.0045 39.6811C50.9424 33.5873 51.8844 27.1153 49.4614 21.24C47.6267 16.7894 43.8173 13.4147 39.0083 13.0281C38.2144 12.965 38.2185 14.2258 39.0083 14.2889Z" fill="#46A358"/>
<path d="M24.3263 18.3277C18.2996 22.8077 20.2536 32.936 21.4713 39.2315C21.6235 40.0258 22.8165 39.6896 22.6602 38.8953C22.0226 35.6004 21.4302 32.2678 21.4919 28.8973C21.5536 25.6192 22.1583 21.488 24.9475 19.4161C25.5851 18.9412 24.9721 17.8486 24.3263 18.3277Z" fill="#46A358"/>
<path d="M31.0934 14.251C28.8514 17.777 27.4034 21.7191 26.8768 25.8965C26.6012 28.0861 26.5806 30.3051 26.8357 32.4988C27.1113 34.8943 27.8641 37.1974 28.1438 39.5929C28.2343 40.3872 29.4726 40.3998 29.378 39.5929C28.8926 35.4112 27.642 31.5616 27.9711 27.2834C28.3125 22.8412 29.7935 18.6134 32.163 14.8856C32.5908 14.2048 31.5254 13.5744 31.0934 14.251Z" fill="#46A358"/>
<path d="M34.1088 18.1469C35.9477 21.2484 36.3344 24.7576 36.6553 28.3004C36.9885 31.9861 37.26 35.676 37.4904 39.3701C37.5397 40.1771 38.7739 40.1813 38.7245 39.3701C38.4653 35.1885 38.1732 31.0069 37.7536 26.8379C37.4245 23.5641 36.8692 20.3575 35.1743 17.5081C34.7629 16.8189 33.6933 17.4493 34.1088 18.1469Z" fill="#46A358"/>
<path d="M39.7241 18.7353C44.3192 24.64 44.4714 32.1795 44.3069 39.3744C44.2904 40.1855 45.5246 40.1855 45.541 39.3744C45.7138 31.7845 45.4176 24.0433 40.5963 17.8444C40.1026 17.2098 39.2346 18.1092 39.7241 18.7353Z" fill="#46A358"/>
<path d="M31.9532 20.2735C31.8833 20.555 31.8175 20.8324 31.7475 21.114C31.6529 21.509 32.2453 21.6771 32.344 21.2821C32.414 21.0005 32.4798 20.7231 32.5497 20.4416C32.6443 20.0507 32.052 19.8826 31.9532 20.2735Z" fill="#46A358"/>
<path d="M33.2861 22.4629C33.2861 22.7781 33.2861 23.0933 33.2861 23.4085C33.2861 23.8161 33.9031 23.8161 33.9031 23.4085C33.9031 23.0933 33.9031 22.7781 33.9031 22.4629C33.9031 22.0553 33.2861 22.0553 33.2861 22.4629Z" fill="#46A358"/>
<path d="M30.3077 24.4593C30.2748 24.9132 30.2378 25.3713 30.2049 25.8251C30.1761 26.2286 30.7931 26.2286 30.8219 25.8251C30.8548 25.3713 30.8919 24.9132 30.9248 24.4593C30.9536 24.0558 30.3365 24.0558 30.3077 24.4593Z" fill="#46A358"/>
<path d="M34.3145 26.6655C34.3145 27.0858 34.3145 27.5061 34.3145 27.9263C34.3145 28.334 34.9316 28.334 34.9316 27.9263C34.9316 27.5061 34.9316 27.0858 34.9316 26.6655C34.9316 26.2579 34.3145 26.2579 34.3145 26.6655Z" fill="#46A358"/>
<path d="M31.9491 28.977C31.9491 29.4309 31.9491 29.889 31.9491 30.3429C31.9491 30.7505 32.5662 30.7505 32.5662 30.3429C32.5662 29.889 32.5662 29.4309 32.5662 28.977C32.5662 28.5694 31.9491 28.5694 31.9491 28.977Z" fill="#46A358"/>
<path d="M30.6121 33.5999C30.6121 34.2303 30.6121 34.8607 30.6121 35.491C30.6121 35.8987 31.2292 35.8987 31.2292 35.491C31.2292 34.8607 31.2292 34.2303 31.2292 33.5999C31.2292 33.1922 30.6121 33.1922 30.6121 33.5999Z" fill="#46A358"/>
<path d="M28.7815 29.4771C28.8514 29.8974 28.9255 30.3177 28.9954 30.7379C29.0612 31.1372 29.6577 30.9691 29.5919 30.5698C29.522 30.1496 29.4479 29.7293 29.378 29.309C29.3081 28.914 28.7116 29.0821 28.7815 29.4771Z" fill="#46A358"/>
<path d="M33.5 35.7013C33.5329 36.1216 33.5699 36.5418 33.6028 36.9621C33.6358 37.3655 34.2528 37.3655 34.2199 36.9621C34.187 36.5418 34.15 36.1216 34.1171 35.7013C34.0842 35.2978 33.463 35.2936 33.5 35.7013Z" fill="#46A358"/>
<path d="M35.3471 30.9733C35.38 31.3936 35.417 31.8138 35.4499 32.2341C35.4828 32.6333 36.0999 32.6375 36.067 32.2341C36.0341 31.8138 35.9971 31.3936 35.9641 30.9733C35.9312 30.5698 35.3142 30.5656 35.3471 30.9733Z" fill="#46A358"/>
<path d="M42.431 16.903C42.9082 17.3275 43.3854 17.752 43.8626 18.1722C44.1629 18.437 44.5989 17.9915 44.2986 17.7267C43.8214 17.3023 43.3442 16.8778 42.867 16.4575C42.5709 16.1928 42.1307 16.6341 42.431 16.903Z" fill="#46A358"/>
<path d="M42.6902 20.4121C42.9576 20.9038 43.2291 21.3997 43.4965 21.8914C43.6898 22.2444 44.2246 21.9292 44.0313 21.572C43.7639 21.0803 43.4924 20.5844 43.225 20.0927C43.0275 19.7397 42.4968 20.0591 42.6902 20.4121Z" fill="#46A358"/>
<path d="M45.1625 20.618C45.467 21.0424 45.7714 21.4669 46.0758 21.8872C46.3062 22.2108 46.8451 21.8956 46.6106 21.5678C46.3062 21.1433 46.0017 20.7188 45.6973 20.2986C45.4628 19.9792 44.928 20.2902 45.1625 20.618Z" fill="#46A358"/>
<path d="M46.6846 26.1151C46.7875 26.8506 46.8944 27.586 46.9973 28.3215C47.0549 28.7207 47.6473 28.5526 47.5938 28.1534C47.4909 27.4179 47.384 26.6825 47.2811 25.947C47.2194 25.5477 46.627 25.7201 46.6846 26.1151Z" fill="#46A358"/>
<path d="M44.6113 24.2281C44.7141 24.5769 44.817 24.9299 44.9198 25.2788C45.035 25.6654 45.6274 25.5015 45.5163 25.1106C45.4135 24.7618 45.3106 24.4088 45.2078 24.06C45.0926 23.6734 44.4961 23.8373 44.6113 24.2281Z" fill="#46A358"/>
<path d="M47.8818 32.129C47.927 32.6291 47.9188 33.1292 47.8406 33.6251C47.7789 34.0201 48.3713 34.1924 48.4371 33.7932C48.5235 33.2385 48.5523 32.6879 48.5029 32.129C48.4618 31.7297 47.8447 31.7255 47.8818 32.129Z" fill="#46A358"/>
<path d="M46.4501 34.1252C46.4501 34.5118 46.4501 34.8942 46.4501 35.2809C46.4501 35.6885 47.0672 35.6885 47.0672 35.2809C47.0672 34.8942 47.0672 34.5118 47.0672 34.1252C47.0672 33.7175 46.4501 33.7175 46.4501 34.1252Z" fill="#46A358"/>
<path d="M47.0878 23.5936C47.2565 24.0139 47.4293 24.4342 47.5979 24.8544C47.6637 25.0141 47.8036 25.1234 47.9764 25.073C48.1204 25.0351 48.2561 24.8418 48.1903 24.6863C48.0216 24.2661 47.8489 23.8458 47.6802 23.4255C47.6144 23.2658 47.4745 23.1566 47.3017 23.207C47.1577 23.2448 47.0261 23.4381 47.0878 23.5936Z" fill="#46A358"/>
<path d="M45.9359 30.8682C45.9359 31.1119 45.9359 31.3599 45.9359 31.6036C45.9359 32.0113 46.553 32.0113 46.553 31.6036C46.553 31.3599 46.553 31.1119 46.553 30.8682C46.553 30.4605 45.9359 30.4605 45.9359 30.8682Z" fill="#46A358"/>
<path d="M47.1701 37.9076C47.1536 38.206 47.0837 38.4918 46.9767 38.7692C46.915 38.9289 47.0467 39.1138 47.1906 39.1558C47.3675 39.2062 47.5074 39.0928 47.5691 38.9373C47.7007 38.6053 47.7666 38.2648 47.7871 37.9076C47.8118 37.5 47.1948 37.5042 47.1701 37.9076Z" fill="#46A358"/>
<path d="M21.2903 19.4623C21.0805 19.7733 20.8707 20.0843 20.6568 20.3953C20.4305 20.7315 20.9653 21.0467 21.1916 20.7147C21.4014 20.4037 21.6112 20.0927 21.8251 19.7817C22.0472 19.4455 21.5124 19.1303 21.2903 19.4623Z" fill="#46A358"/>
<path d="M19.5296 24.0599C19.4515 24.4423 19.3774 24.8248 19.2992 25.2114C19.2211 25.6065 19.8135 25.7788 19.8957 25.3795C19.9739 24.9971 20.048 24.6146 20.1261 24.228C20.2043 23.8329 19.6078 23.6648 19.5296 24.0599Z" fill="#46A358"/>
<path d="M19.3321 21.7695C19.0072 22.2108 18.7644 22.6983 18.5999 23.2236C18.4765 23.6102 19.073 23.7741 19.1964 23.3917C19.3486 22.9168 19.5749 22.4881 19.8669 22.0889C20.1055 21.7611 19.5666 21.4501 19.3321 21.7695Z" fill="#46A358"/>
<path d="M18.0774 25.9511C18.0034 26.4764 17.9252 26.9975 17.8512 27.5229C17.7936 27.9179 18.3901 28.0902 18.4477 27.691C18.5217 27.1656 18.5999 26.6445 18.6739 26.1192C18.7315 25.7199 18.135 25.5476 18.0774 25.9511Z" fill="#46A358"/>
<path d="M18.6945 28.977C18.641 29.5023 18.674 30.0193 18.7727 30.5362C18.8467 30.9354 19.4432 30.7673 19.3692 30.3681C19.2828 29.9058 19.2663 29.4435 19.3157 28.977C19.3486 28.5736 18.7316 28.5778 18.6945 28.977Z" fill="#46A358"/>
<path d="M19.2005 32.9696C19.2334 33.2848 19.2705 33.6 19.3034 33.9152C19.3198 34.0833 19.4309 34.2304 19.6119 34.2304C19.7641 34.2304 19.941 34.0875 19.9204 33.9152C19.8875 33.6 19.8505 33.2848 19.8176 32.9696C19.8011 32.8015 19.6901 32.6544 19.5091 32.6544C19.3568 32.6544 19.1841 32.7973 19.2005 32.9696Z" fill="#46A358"/>
<path d="M18.2008 35.3399C18.4394 35.7391 18.6122 36.1594 18.7192 36.6175C18.8138 37.0125 19.4062 36.8444 19.3157 36.4494C19.1964 35.9451 18.9989 35.466 18.7356 35.0205C18.5258 34.6759 17.9952 34.9953 18.2008 35.3399Z" fill="#46A358"/>
<path d="M19.5173 37.9917C19.5872 38.1682 19.653 38.3405 19.723 38.5171C19.7847 38.6725 19.9286 38.786 20.1014 38.7356C20.2495 38.6936 20.3812 38.5086 20.3153 38.3489C20.2454 38.1724 20.1796 38.0001 20.1096 37.8236C20.0479 37.6681 19.904 37.5547 19.7312 37.6051C19.5872 37.6429 19.4556 37.832 19.5173 37.9917Z" fill="#46A358"/>
</g>
<defs>
<clipPath id="clip0_4_3496">
<rect width="68" height="50.5" fill="white" transform="translate(0 39.1633)"/>
</clipPath>
<clipPath id="clip1_4_3496">
<rect width="35" height="40.1939" fill="white" transform="translate(16)"/>
</clipPath>
</defs>
</svg>
