<svg width="61" height="94" viewBox="0 0 61 94" fill="none" xmlns="http://www.w3.org/2000/svg">
<g clip-path="url(#clip0_4_3353)">
<path d="M12.1293 46.5876C24.7023 48.2594 37.3918 48.5222 50.0231 47.3714C50.8795 47.2944 50.8885 45.9352 50.0231 46.0122C37.3918 47.163 24.7023 46.9002 12.1293 45.2284C11.2774 45.1151 11.2819 46.4788 12.1293 46.5876Z" fill="#727272"/>
<path d="M15.0304 92.4885C20.465 93.1862 25.9354 93.526 31.4147 93.449C36.235 93.3811 41.9251 93.594 46.4449 91.6775C47.2296 91.3422 46.8843 90.0283 46.0862 90.3681C41.4498 92.3345 35.5086 92.0671 30.5493 92.0989C25.3569 92.1351 20.178 91.7908 15.0259 91.1293C14.174 91.0205 14.1785 92.3798 15.0304 92.4885Z" fill="#727272"/>
<path d="M11.6047 45.541C5.33167 51.4219 2.40814 60.1889 3.09867 68.7384C3.4529 73.1559 4.69046 77.451 6.5513 81.4562C8.24623 85.108 10.7438 90.341 14.4924 92.2394C15.2636 92.629 15.9452 91.4601 15.1694 91.0659C11.6809 89.2989 9.30892 84.2109 7.71264 80.7721C5.85629 76.7623 4.64114 72.4083 4.39004 67.9818C3.94165 60.0031 6.71272 51.9792 12.5598 46.5015C13.1965 45.908 12.2414 44.9475 11.6047 45.541Z" fill="#727272"/>
<path d="M49.5478 47.1856C56.1661 51.3765 56.7893 60.4154 56.6279 67.5332C56.4486 75.471 55.4755 88.0484 46.0862 90.3681C45.2477 90.5765 45.6019 91.8859 46.4449 91.6775C56.2468 89.2581 57.6547 76.7759 57.9507 68.3759C58.2242 60.515 57.5337 50.638 50.2248 46.0121C49.4895 45.55 48.8169 46.7235 49.5478 47.1856Z" fill="#727272"/>
<path d="M16.5774 46.5966C11.6405 51.9655 9.46135 60.9318 10.2954 68.1221C10.7796 72.304 12.0889 76.4542 13.062 80.5364C14.0395 84.6276 15.0483 88.6872 17.2634 92.2982C17.7208 93.0412 18.8821 92.3571 18.4247 91.614C16.3442 88.225 15.3757 84.4373 14.4565 80.5998C13.5686 76.9027 12.5329 73.2011 11.8468 69.4632C10.5465 62.3454 12.5822 52.9396 17.528 47.5571C18.1154 46.9137 17.1648 45.9532 16.5774 46.5966Z" fill="#727272"/>
<path d="M23.2405 47.163C19.5637 53.7054 17.6311 61.1358 17.7298 68.6659C17.7791 72.2814 18.2903 75.9015 19.2678 79.3811C20.4829 83.6989 22.3303 87.7947 23.1374 92.2303C23.2943 93.0911 24.5902 92.7241 24.4332 91.8678C23.7293 87.985 22.2361 84.3694 21.0479 80.6271C19.8955 76.9934 19.205 73.2465 19.0884 69.4271C18.8552 61.8743 20.7116 54.4122 24.4019 47.8471C24.8323 47.086 23.671 46.4018 23.2405 47.163Z" fill="#727272"/>
<path d="M27.2043 48.4634C28.4822 56.0116 26.9308 63.5734 27.0608 71.1533C27.1191 74.6148 27.8859 77.8362 28.3343 81.2433C28.8006 84.7818 28.0025 88.42 27.5675 91.9313C27.4599 92.7967 28.8051 92.7876 28.9127 91.9313C29.3521 88.3882 30.1458 84.7229 29.6795 81.1527C29.2042 77.5009 28.4015 74.0394 28.397 70.3242C28.3881 62.8892 29.7512 55.5087 28.5002 48.1054C28.3522 47.2446 27.0564 47.607 27.2043 48.4634Z" fill="#727272"/>
<path d="M32.2488 47.8335C34.6118 54.6522 34.8988 61.8471 35.1364 69.0011C35.3965 76.7713 35.0109 84.4192 33.576 92.0671C33.4146 92.9234 34.7104 93.2904 34.8719 92.4296C36.3292 84.6639 36.7462 76.8891 36.4816 69.0011C36.2395 61.7293 35.9435 54.3985 33.5446 47.471C33.2621 46.6555 31.9618 47.0089 32.2488 47.8335Z" fill="#727272"/>
<path d="M37.9075 47.8653C38.4052 49.4012 39.4813 50.4252 40.3064 51.7753C41.248 53.3158 41.7637 55.0601 42.0417 56.8362C42.647 60.7145 42.36 64.774 42.3511 68.6841C42.3421 72.9384 42.6649 77.4374 41.5753 81.5921C40.6158 85.2394 38.4142 88.3837 37.6788 92.108C37.5084 92.9643 38.8043 93.3268 38.9747 92.4704C39.7638 88.4834 42.2031 85.108 43.064 81.1391C43.9473 77.0795 43.6873 72.8116 43.6962 68.6841C43.7052 64.8692 43.9339 60.9682 43.4362 57.176C43.2165 55.4996 42.8398 53.8413 42.1224 52.31C41.3242 50.6019 39.7862 49.3015 39.2078 47.5074C38.9343 46.6782 37.634 47.0316 37.9075 47.8653Z" fill="#727272"/>
<path d="M44.4496 47.6522C47.122 50.1895 48.4089 54.2399 49.3729 57.7377C50.3773 61.3804 50.041 65.2678 49.8168 68.9966C49.3639 76.5629 48.0995 84.1202 44.5078 90.8619C44.0953 91.6322 45.2567 92.3208 45.6692 91.5461C49.4985 84.3558 50.7764 76.2729 51.2024 68.2082C51.4176 64.1487 51.5925 60.1843 50.3325 56.2742C49.2384 52.8807 48.0322 49.1927 45.4001 46.6872C44.7724 46.0937 43.8173 47.0542 44.4496 47.6522Z" fill="#727272"/>
<path d="M16.4698 51.0504C16.3308 51.4083 16.1783 51.7617 16.0124 52.1106C15.8017 52.5501 16.0483 53.1527 16.5953 53.1345C16.9854 53.121 17.2948 52.9443 17.5728 52.6769C17.6625 52.5909 17.7522 52.5002 17.8374 52.4142C17.9495 52.3009 17.8015 52.4821 17.8867 52.3779C17.8688 52.4051 17.7746 52.396 17.8598 52.4051C17.6446 52.1197 17.4293 51.8297 17.2096 51.5443C17.1513 51.8478 17.0886 52.1514 17.0303 52.4595C16.9585 52.8174 17.1334 53.1934 17.5011 53.2977C17.8329 53.3883 18.2589 53.1844 18.3306 52.8219C18.3889 52.5184 18.4517 52.2148 18.51 51.9067C18.5996 51.4446 18.3172 51.0912 17.8598 51.0459C17.4876 51.0096 17.1513 51.209 16.8868 51.4536C16.7926 51.5397 16.7119 51.6303 16.6177 51.7164C16.5863 51.7436 16.5594 51.7708 16.5281 51.798C16.5415 51.7844 16.555 51.7753 16.5684 51.7617C16.5012 51.798 16.5012 51.8025 16.5774 51.7708C16.5012 51.7889 16.5056 51.7934 16.5908 51.7708C16.7836 52.1106 16.9765 52.4504 17.1737 52.7947C17.389 52.3417 17.5863 51.8795 17.7656 51.4129C17.8957 51.0685 17.6221 50.6653 17.2948 50.5747C16.9182 50.4705 16.6043 50.7061 16.4698 51.0504Z" fill="#727272"/>
<path d="M13.1382 59.1831C13.0754 59.5637 13.0127 59.9442 12.9499 60.3203C12.9006 60.6239 12.9813 60.9229 13.2593 61.086C13.5059 61.231 13.8781 61.2038 14.0754 60.9818C14.2054 60.8323 14.3354 60.6828 14.4655 60.5332C14.5506 60.4336 14.6717 60.2478 14.7748 60.1934C14.6627 60.2251 14.5506 60.2569 14.4341 60.284C14.4565 60.2795 14.4834 60.2795 14.5058 60.275C14.3937 60.2433 14.2816 60.2116 14.165 60.1844C14.183 60.198 14.2009 60.2116 14.2188 60.2251C14.1067 60.0303 13.9946 59.8355 13.887 59.6362C13.9229 60.0258 13.8153 60.4607 13.7704 60.8549C13.7077 61.4213 14.3758 61.6297 14.7838 61.4439C15.3129 61.1947 15.6672 60.7371 15.8555 60.1889C15.4788 60.2886 15.1067 60.3883 14.73 60.4879C14.7166 60.4018 14.7031 60.3158 14.6897 60.2297C14.4699 61.0769 15.7703 61.4394 15.9855 60.5921C16.0842 60.207 15.9945 59.7857 15.6806 59.5274C15.277 59.1967 14.7345 59.3145 14.5551 59.8264C14.4744 60.053 14.3085 60.1708 14.1023 60.2705C14.4386 60.4653 14.7748 60.6601 15.1156 60.8595C15.1829 60.2523 15.5057 59.174 14.6807 58.943C13.9857 58.7481 13.4969 59.5818 13.1203 60.0213C13.4969 60.2433 13.8691 60.4607 14.2457 60.6828C14.3085 60.3022 14.3713 59.9216 14.4341 59.5455C14.4924 59.1831 14.3399 58.8116 13.9633 58.7074C13.6449 58.6213 13.1965 58.8206 13.1382 59.1831Z" fill="#727272"/>
<path d="M12.5598 67.3701C12.6046 67.9047 12.6539 68.4393 12.6988 68.9694C12.766 69.7261 13.7749 69.9028 14.0215 69.1507C14.1561 68.7338 14.3444 68.3578 14.582 67.9863C14.174 67.9319 13.7615 67.8775 13.3534 67.8232C13.5104 68.2173 13.618 68.6206 13.6763 69.0465C13.7435 69.5267 14.322 69.6083 14.6627 69.4542C14.8331 69.3772 14.9721 69.2277 15.0618 69.0646C15.1022 68.9921 15.1336 68.906 15.1605 68.829C15.1739 68.7882 15.1829 68.7474 15.1963 68.7067C15.2187 68.6387 15.2098 68.6432 15.1784 68.7202C15.0797 68.7791 14.9811 68.838 14.8824 68.8969C14.9049 68.8879 14.9318 68.8834 14.9542 68.8743C14.8331 68.8743 14.7165 68.8743 14.5955 68.8743C14.5865 68.8698 14.5775 68.8652 14.5731 68.8562C14.4923 68.7746 14.4116 68.6931 14.3309 68.6115C14.3444 68.6296 14.3533 68.6478 14.3668 68.6659C14.3444 68.4892 14.322 68.317 14.2995 68.1403C14.2951 68.163 14.2951 68.1856 14.2906 68.2037C14.2412 68.5662 14.3758 68.9332 14.7614 69.0419C15.0753 69.128 15.5416 68.9332 15.5909 68.5662C15.6313 68.2717 15.6088 68.0044 15.3936 67.7824C15.2143 67.6012 14.9407 67.5151 14.6896 67.5423C14.4296 67.574 14.2009 67.728 14.0619 67.95C14.0036 68.0452 13.9229 68.1766 13.9184 68.2853C13.9139 68.4439 13.8467 68.3306 13.9901 68.2672C14.3175 68.4031 14.6493 68.539 14.9766 68.6749C14.9183 68.2536 14.8107 67.8503 14.6538 67.4516C14.4385 66.917 13.757 66.763 13.4252 67.2885C13.1292 67.7552 12.9005 68.2536 12.7302 68.7746C13.1696 68.8335 13.609 68.8969 14.0529 68.9558C14.0081 68.4212 13.9588 67.8866 13.9139 67.3565C13.8825 66.9895 13.6269 66.6769 13.2413 66.6769C12.8961 66.6905 12.5284 67.0031 12.5598 67.3701Z" fill="#727272"/>
<path d="M14.1785 76.9572C14.2233 77.741 14.6134 78.4251 15.2905 78.8238C15.7389 79.0821 16.2949 78.7513 16.3039 78.2348C16.3084 77.8361 16.398 77.4691 16.5505 77.1021C16.1738 77.2018 15.8017 77.3015 15.425 77.4012C15.6089 77.6277 15.8061 77.8271 16.0259 78.0128C16.3846 78.3164 17.0392 78.2575 17.1513 77.7138C17.1782 77.5915 17.2096 77.4873 17.25 77.374C16.8733 77.4737 16.5012 77.5733 16.1245 77.673C16.1649 77.6504 16.1873 77.6775 16.1828 77.75C16.3263 78.0898 16.8195 78.1623 17.102 77.9947C17.4473 77.7908 17.4876 77.4057 17.3441 77.0659C17.2859 76.93 17.1917 76.8076 17.0751 76.7125C16.6581 76.3818 16.1469 76.5041 15.9496 77.0115C15.9048 77.1248 15.8734 77.2335 15.851 77.3513C16.2276 77.2517 16.5998 77.152 16.9765 77.0523C16.7567 76.8665 16.5595 76.6627 16.3756 76.4407C16.0169 75.9966 15.425 76.3274 15.2501 76.7397C15.0528 77.2154 14.9632 77.7183 14.9542 78.2348C15.2905 78.04 15.6268 77.8452 15.9676 77.6458C15.7075 77.4963 15.5371 77.2607 15.5192 76.9526C15.4743 76.0918 14.1292 76.0827 14.1785 76.9572Z" fill="#727272"/>
<path d="M16.9496 86.2768C17.1065 86.6846 17.2948 87.0607 17.5504 87.4186C17.9495 87.9713 18.7431 87.7674 18.8059 87.0742C18.8104 87.0335 18.8821 86.5306 18.8552 86.5079C18.6624 86.6302 18.4741 86.7526 18.2813 86.8749C18.3261 86.9383 18.3665 86.9972 18.4158 87.0561C18.5862 87.2736 18.7969 87.4594 19.0705 87.5364C19.2812 87.5907 19.5278 87.5636 19.7117 87.4458C19.8327 87.3642 19.9179 87.2691 19.9807 87.1377C20.0031 87.0833 20.0255 87.0289 20.048 86.9746C20.1511 86.6484 19.9538 86.594 19.4606 86.8115C19.7296 87.6361 21.0299 87.2827 20.7564 86.449C20.5681 85.8781 20.0211 85.5066 19.4247 85.7331C19.1826 85.8283 18.9718 86.0095 18.8552 86.2451C18.8194 86.3176 18.6893 86.6302 18.7342 86.7208C18.9942 86.5713 19.2498 86.4173 19.5099 86.2678C19.474 86.2225 19.4381 86.1817 19.4068 86.1364C19.1915 85.6969 18.5683 85.4477 18.1199 85.6108C17.4876 85.8374 17.5145 86.517 17.4652 87.0788C17.8822 86.9655 18.2992 86.8522 18.7207 86.7344C18.5369 86.4807 18.371 86.2134 18.2544 85.9189C17.9315 85.1124 16.6312 85.4613 16.9496 86.2768Z" fill="#727272"/>
<path d="M24.1373 51.2361C23.653 51.6031 23.2495 52.038 22.9849 52.5953C22.6397 53.3202 23.4423 53.8911 24.0431 53.4199C24.1866 53.3067 24.3301 53.1934 24.4736 53.0801C24.5364 53.0303 24.5991 52.9804 24.6664 52.9306C24.6978 52.9034 24.7292 52.8808 24.7606 52.8536C24.8727 52.772 24.8144 52.7856 24.5857 52.8898C24.4736 52.8581 24.3615 52.8264 24.2449 52.7992C24.2584 52.8083 24.2718 52.8173 24.2853 52.8264C24.2046 52.7448 24.1238 52.6633 24.0431 52.5817C24.0297 52.5228 24.0117 52.4685 23.9983 52.4096C24.0028 52.3461 24.0028 52.3371 23.9893 52.3914C23.9579 52.4141 23.949 52.5681 23.949 52.5908C23.9176 52.7992 23.9355 53.0031 24.0431 53.1934C24.1418 53.3656 24.3167 53.5196 24.5095 53.5694C24.5902 53.5921 24.6933 53.6012 24.7785 53.6012C24.8592 53.6012 24.931 53.5876 25.0027 53.5604C25.0969 53.5332 25.0655 53.5241 24.9041 53.5332C24.8054 53.4743 24.7068 53.4154 24.6081 53.3565C24.6216 53.3701 24.635 53.3837 24.6485 53.3973C24.5902 53.2976 24.5319 53.1979 24.4736 53.0982C24.4781 53.1118 24.4826 53.13 24.487 53.1435C24.5095 52.9668 24.5319 52.7947 24.5543 52.618C24.5453 52.6316 24.5409 52.6452 24.5319 52.6588C24.1238 53.429 25.2852 54.1177 25.6932 53.3429C25.8681 53.0167 25.8277 52.6497 25.5542 52.3914C25.4107 52.2555 25.2179 52.174 25.0206 52.1694C24.9085 52.1649 24.7785 52.2374 24.6799 52.2283C24.792 52.2601 24.9041 52.2918 25.0206 52.319C25.0027 52.3054 24.9848 52.2918 24.9713 52.2827C25.052 52.3643 25.1327 52.4458 25.2134 52.5274C25.2045 52.5092 25.1955 52.4911 25.1865 52.473C25.2179 52.5863 25.2493 52.6995 25.2762 52.8173C25.2672 52.7312 25.2807 52.7766 25.3121 52.6497C25.348 52.4911 25.3524 52.319 25.3166 52.1558C25.2403 51.8296 24.9982 51.594 24.6754 51.5351C24.3391 51.4717 24.1104 51.6484 23.8548 51.8478C23.5992 52.0471 23.3436 52.251 23.0881 52.4503C23.4423 52.7267 23.792 52.9986 24.1463 53.2749C24.3077 52.9397 24.5139 52.6316 24.8144 52.405C25.1058 52.1876 25.2538 51.816 25.0565 51.4762C24.8906 51.1908 24.4332 51.0186 24.1373 51.2361Z" fill="#727272"/>
<path d="M21.5052 58.884C21.3931 59.4277 21.2855 59.9714 21.1734 60.5196C21.0344 61.2128 21.7788 61.6115 22.2989 61.1811C22.4513 61.0542 22.5859 60.8956 22.6845 60.7235C22.7518 60.6057 22.8325 60.3656 22.8684 60.3067C22.7876 60.3882 22.7069 60.4698 22.6262 60.5513C22.6486 60.5377 22.6666 60.5241 22.689 60.506C22.5769 60.5377 22.4648 60.5694 22.3482 60.5966C22.3751 60.5921 22.402 60.5921 22.4289 60.5876C22.3168 60.5558 22.2047 60.5241 22.0881 60.4969C21.9805 60.4471 21.976 60.2704 22.0074 60.5015C22.0164 60.5604 22.0299 60.6102 22.0478 60.6646C22.1106 60.8685 22.2227 61.0497 22.3931 61.1766C22.55 61.2944 22.7338 61.3578 22.9311 61.3533C23.0522 61.3487 23.1643 61.317 23.2719 61.2626C23.3302 61.24 23.3795 61.2083 23.4244 61.1675C23.5409 61.0859 23.5096 61.0905 23.3347 61.172C23.2226 61.1403 23.1105 61.1086 22.9939 61.0814C23.0118 61.0905 23.0163 61.0995 23.0298 61.1358C23.3167 61.9558 24.6171 61.6024 24.3256 60.7733C24.2001 60.4154 24.0162 60.0846 23.671 59.9079C23.4916 59.8128 23.2674 59.7856 23.0701 59.8309C22.8728 59.8762 22.7563 60.0076 22.5859 60.0892C22.698 60.0575 22.8101 60.0257 22.9266 59.9986C22.9042 59.9986 22.8773 59.9986 22.8549 59.9986C22.967 60.0303 23.0791 60.062 23.1957 60.0892C23.3167 60.3021 23.3526 60.3338 23.3033 60.1843C23.2943 60.1254 23.2854 60.0665 23.2764 60.0076C23.245 59.8898 23.1957 59.7675 23.1329 59.6678C22.967 59.405 22.6935 59.2329 22.3841 59.2374C22.0792 59.2419 21.8012 59.4186 21.6577 59.6859C21.5366 59.9125 21.5456 60.0484 21.3393 60.2206C21.716 60.4426 22.0881 60.6601 22.4648 60.8821C22.5769 60.3384 22.6845 59.7947 22.7966 59.251C22.976 58.3902 21.6801 58.0277 21.5052 58.884Z" fill="#727272"/>
<path d="M20.9851 65.8297C20.8461 66.5592 20.7564 67.2931 20.734 68.0316C20.716 68.5482 21.3169 68.8744 21.7473 68.6206C21.9446 68.5028 22.0881 68.3443 22.1957 68.1404C22.2361 68.0634 22.3527 67.8867 22.3303 67.8187C22.3258 67.8096 22.2854 67.8685 22.3034 67.8595C22.1913 67.8912 22.0792 67.9229 21.9626 67.9501C21.9536 67.9546 21.9402 67.9546 21.9312 67.9592C21.8505 67.8776 21.7698 67.796 21.6891 67.7145C21.7653 67.8142 21.7563 67.8051 21.7653 67.9093C21.8146 68.4666 22.4782 68.8381 22.9132 68.3896C22.9625 68.3352 23.0118 68.2854 23.0656 68.2355C22.9715 68.2808 22.8728 68.2718 22.7787 68.2174C22.7204 68.1177 22.6621 68.0181 22.6038 67.9184C22.6127 67.9456 22.6217 67.9727 22.6352 67.9999C22.7607 68.3443 23.0925 68.5799 23.4647 68.4757C23.792 68.385 24.0611 67.9863 23.9355 67.6375C23.5858 66.677 22.5679 66.7993 21.9626 67.4291C22.3437 67.5876 22.7293 67.7507 23.1105 67.9093C23.0567 67.2524 22.7338 66.541 21.9626 66.5909C21.6487 66.609 21.3707 66.7948 21.2048 67.0621C21.1465 67.1572 21.1061 67.266 21.0613 67.3702C21.012 67.4834 20.9268 67.5242 21.0658 67.4427C21.4021 67.6375 21.7384 67.8323 22.0792 68.0316C22.0971 67.4109 22.1644 66.7993 22.2809 66.1876C22.4468 65.3359 21.151 64.9734 20.9851 65.8297Z" fill="#727272"/>
<path d="M21.6532 73.5908C21.8057 74.198 21.9895 74.7915 22.2047 75.376C22.3796 75.8517 22.9401 76.051 23.3302 75.675C23.5006 75.5074 23.6172 75.3125 23.6755 75.0769C23.6979 74.9818 23.7158 74.8685 23.7203 74.7734C23.7338 74.4834 23.7024 74.7235 23.7293 74.7099C23.6172 74.7417 23.5051 74.7734 23.3885 74.8006C23.4199 74.8006 23.4468 74.796 23.4782 74.796C23.3661 74.7643 23.254 74.7326 23.1374 74.7054C23.0477 74.6646 23.0746 74.6239 23.1464 74.7507C23.1822 74.8141 23.2136 74.8685 23.2585 74.9274C23.3975 75.1086 23.5678 75.231 23.7965 75.2627C23.9983 75.2899 24.1911 75.24 24.3615 75.1222C24.4557 75.0543 24.5409 74.9773 24.6036 74.8776C24.6305 74.8232 24.6574 74.7688 24.6799 74.7145C24.7695 74.5378 24.6933 74.5831 24.4512 74.8549C24.3301 74.8549 24.2135 74.8549 24.0925 74.8549C24.0387 74.8096 23.9893 74.7598 23.9355 74.7145C23.9041 74.6012 23.8728 74.4879 23.8459 74.3701C23.8459 74.3973 23.8459 74.4245 23.8459 74.4517C23.8324 75.3261 25.1776 75.3261 25.191 74.4517C25.2 73.9941 24.8861 73.6362 24.4512 73.5455C24.218 73.4957 23.9849 73.5455 23.792 73.686C23.6979 73.754 23.6217 73.831 23.5589 73.9261C23.5454 73.9533 23.532 73.985 23.514 74.0122C23.3975 74.2387 23.4288 74.2342 23.6127 73.9986C23.7248 73.9669 23.8369 73.9352 23.9535 73.908C23.931 73.9125 23.9086 73.9125 23.8862 73.9171C23.9983 73.9488 24.1104 73.9805 24.227 74.0077C24.4198 74.1028 24.3212 74.0711 24.2494 73.9442C24.1956 73.8446 24.1239 73.7494 24.0431 73.6769C23.7876 73.4459 23.4513 73.387 23.1329 73.5002C22.8773 73.5908 22.6845 73.7902 22.5545 74.0213C22.4827 74.1527 22.4469 74.284 22.42 74.429C22.4065 74.4925 22.42 74.6737 22.3796 74.7145C22.7563 74.8141 23.1284 74.9138 23.5051 75.0135C23.2898 74.429 23.106 73.831 22.9535 73.2284C22.7338 72.3857 21.438 72.7436 21.6532 73.5908Z" fill="#727272"/>
<path d="M22.3303 80.0834C22.5724 80.8038 22.8818 81.497 23.2629 82.1494C23.5364 82.6161 24.1418 82.5617 24.4243 82.1494C24.5005 82.0362 24.5543 81.9184 24.5902 81.787C24.5947 81.7462 24.5991 81.71 24.6081 81.6692C24.6799 81.4064 24.6171 81.4155 24.4108 81.7009C24.2898 81.7009 24.1732 81.7009 24.0521 81.7009C23.8638 81.642 23.949 81.6556 24.0476 81.7643C24.1194 81.8413 24.209 81.9229 24.3032 81.9773C24.496 82.086 24.7247 82.1268 24.9444 82.1087C25.4466 82.0724 25.7919 81.7371 25.9578 81.2795C26.2582 80.4595 24.9579 80.1015 24.6619 80.9171C24.7471 80.6905 24.9579 80.8174 24.922 80.7087C24.8951 80.6316 24.7381 80.5274 24.6664 80.4867C24.4467 80.3598 24.1821 80.3326 23.9445 80.4142C23.7248 80.4867 23.5499 80.6543 23.4378 80.8582C23.3392 81.0394 23.3661 81.3112 23.2584 81.4653C23.6441 81.4653 24.0342 81.4653 24.4198 81.4653C24.0925 80.908 23.8279 80.3371 23.6216 79.7255C23.3526 78.9009 22.0523 79.2543 22.3303 80.0834Z" fill="#727272"/>
<path d="M24.1014 87.8355C24.1059 88.2116 24.1597 88.5876 24.2763 88.941C24.3615 89.1993 24.5633 89.3896 24.8368 89.4258C25.0834 89.4575 25.3928 89.3442 25.5049 89.0996C25.5811 88.9365 25.6574 88.7734 25.7336 88.6148C25.7695 88.5378 25.8053 88.4653 25.8367 88.3883C25.8546 88.352 25.8726 88.3112 25.8905 88.275C25.9264 88.207 25.9264 88.207 25.8905 88.275C25.7919 88.3339 25.6932 88.3928 25.5946 88.4517C25.608 88.4472 25.626 88.4381 25.6394 88.4336C25.5184 88.4336 25.4018 88.4336 25.2807 88.4336C25.2583 88.4245 25.2314 88.4109 25.209 88.4019C25.1282 88.3203 25.0475 88.2387 24.9668 88.1572C24.8996 88.0439 24.9623 88.1391 24.9892 88.2161C25.0117 88.2886 25.0386 88.3565 25.061 88.429C25.1103 88.5695 25.1596 88.7145 25.2045 88.8549C25.3211 89.2038 25.6663 89.4303 26.034 89.3307C26.3658 89.24 26.6214 88.8413 26.5048 88.4925C26.312 87.9307 26.1506 87.0064 25.3704 87.1106C24.765 87.1921 24.5633 87.9352 24.3391 88.4154C24.7471 88.4698 25.1596 88.5242 25.5677 88.5786C25.4825 88.3112 25.4421 88.0938 25.4376 87.831C25.4332 87.4776 25.1327 87.1332 24.7651 87.1514C24.4108 87.1695 24.0969 87.4549 24.1014 87.8355Z" fill="#727272"/>
<path d="M30.2803 88.66C30.2444 88.9681 30.2085 89.2807 30.1727 89.5888C30.1368 89.8788 30.4058 90.1733 30.6659 90.2458C30.9708 90.3319 31.2533 90.1823 31.4237 89.9332C31.5448 89.7565 31.6658 89.5843 31.7869 89.4076C31.8407 89.326 31.899 89.249 31.9528 89.1675C31.9752 89.1357 31.9976 89.104 32.02 89.0723C32.1187 88.9364 32.1052 88.9454 31.9842 89.0995C31.8721 89.1312 31.76 89.1629 31.6434 89.1901C31.6658 89.1901 31.6838 89.1901 31.7062 89.1901C31.5941 89.1584 31.482 89.1267 31.3654 89.0995C31.2309 88.8639 31.186 88.8186 31.2309 88.9636C31.2443 89.0179 31.2533 89.0768 31.2667 89.1312C31.2892 89.2445 31.3116 89.3532 31.3385 89.4665C31.3878 89.7021 31.4102 89.9785 31.5313 90.1914C31.6479 90.3908 31.8407 90.5629 32.0649 90.6264C32.4102 90.7215 32.6926 90.5448 32.8944 90.273C33.1141 89.9785 32.9393 89.5118 32.6523 89.3442C32.307 89.1403 31.9528 89.2943 31.7331 89.5888C31.7241 89.6024 31.7151 89.616 31.7062 89.6251C31.899 89.5118 32.0918 89.3985 32.2891 89.2898C32.2756 89.2898 32.2622 89.2943 32.2487 89.2943C32.3608 89.326 32.4729 89.3577 32.5895 89.3849C32.7061 89.4438 32.7778 89.7746 32.7106 89.4393C32.6926 89.3442 32.6702 89.2535 32.6523 89.1584C32.6164 88.9908 32.585 88.8231 32.5492 88.6555C32.4684 88.3021 32.2577 87.9577 31.89 87.8535C31.482 87.7403 31.1591 87.9759 30.9305 88.284C30.7018 88.5966 30.4865 88.9183 30.2668 89.2354C30.6838 89.3487 31.1008 89.462 31.5223 89.5798C31.5582 89.2717 31.5941 88.959 31.6299 88.651C31.6703 88.284 31.2892 87.9713 30.9574 87.9713C30.5583 87.9804 30.3251 88.2976 30.2803 88.66Z" fill="#727272"/>
<path d="M30.926 76.2503C30.7601 76.9753 30.6794 77.7183 30.6928 78.4613C30.7018 79.1002 31.6344 79.4309 31.9483 78.8057C32.0828 78.5338 32.2174 78.2665 32.3519 77.9947C32.4505 77.7953 32.5223 77.5461 32.7016 77.4057C32.603 77.4646 32.5043 77.5235 32.4057 77.5824C32.4057 77.5778 32.4057 77.5733 32.4102 77.5688C32.1949 77.4012 31.9797 77.238 31.76 77.0704C31.8452 77.3921 31.9304 77.7138 32.0156 78.0355C32.1232 78.4387 32.6389 78.6833 33.0021 78.4432C33.0648 78.4024 33.1276 78.3571 33.1904 78.3164C33.9078 77.8361 33.2352 76.6581 32.5133 77.1429C32.4505 77.1837 32.3878 77.229 32.325 77.2698C32.6523 77.4057 32.9841 77.5416 33.3114 77.6775C33.2262 77.3558 33.1411 77.0342 33.0559 76.7125C32.9796 76.427 32.7016 76.2096 32.4057 76.2141C31.4596 76.2322 31.1367 77.4193 30.787 78.1261C31.204 78.2393 31.621 78.3526 32.0425 78.4704C32.0335 77.8406 32.0873 77.2335 32.2263 76.6173C32.4147 75.761 31.1188 75.3986 30.926 76.2503Z" fill="#727272"/>
<path d="M29.6436 66.0833C29.675 66.6179 29.7019 67.148 29.7332 67.6827C29.7691 68.3532 30.6211 68.6115 30.9887 68.027C31.2488 67.6102 31.5089 67.1979 31.769 66.781C31.3833 66.781 30.9932 66.781 30.6076 66.781C30.7018 66.9442 30.7601 67.0937 30.769 67.284C30.8004 67.882 31.4775 68.1675 31.9169 67.7642C32.2577 67.4561 32.4774 67.0846 32.6433 66.6542C32.316 66.7901 31.9842 66.926 31.6569 67.062C31.6569 67.071 31.6569 67.0801 31.6524 67.0846C31.5941 66.9849 31.5358 66.8853 31.4775 66.7856C31.491 66.8128 31.4999 66.8445 31.5134 66.8717C31.6524 67.2115 31.9573 67.4516 32.3429 67.3474C32.6568 67.2613 32.9527 66.8535 32.8137 66.5092C32.6971 66.2328 32.5761 66.0652 32.3339 65.884C31.9528 65.5985 31.4865 65.9247 31.3475 66.2917C31.2668 66.5001 31.1278 66.6542 30.9663 66.8037C31.3475 66.9623 31.7331 67.1254 32.1142 67.284C32.0918 66.8581 31.9842 66.4639 31.769 66.0969C31.5044 65.6484 30.8767 65.6665 30.6076 66.0969C30.3475 66.5137 30.0875 66.926 29.8274 67.3429C30.2444 67.4561 30.6614 67.5694 31.0829 67.6872C31.0515 67.1526 31.0246 66.6225 30.9932 66.0878C30.9394 65.2134 29.5942 65.2089 29.6436 66.0833Z" fill="#727272"/>
<path d="M30.0068 57.0989C29.9664 57.4432 29.9485 57.7876 29.9575 58.1319C29.9709 58.6031 30.5359 59.0381 30.9708 58.7209C31.195 58.5578 31.334 58.372 31.4103 58.1047C31.4282 58.0413 31.4461 57.9688 31.4551 57.9054C31.4641 57.8465 31.4999 57.8419 31.4506 57.8873C31.2175 58.1047 30.9708 58.4174 30.5987 57.9643C30.639 58.0141 30.6256 58.0096 30.5987 57.9507C30.6301 58.0186 30.6525 58.0957 30.6839 58.1636C30.7377 58.2814 30.8184 58.3856 30.9081 58.4763C31.1861 58.7526 31.5986 58.807 31.9349 58.6122C32.2532 58.4309 32.3564 57.996 32.177 57.6834C31.9887 57.3617 31.5762 57.2575 31.2578 57.4387C31.2444 57.4478 31.2264 57.4568 31.213 57.4659C31.3251 57.4342 31.4372 57.4025 31.5537 57.3753C31.5896 57.3708 31.9125 57.552 31.8856 57.561C31.9035 57.5973 31.9035 57.5973 31.89 57.5656C31.8766 57.5293 31.8631 57.4931 31.8452 57.4568C31.7914 57.3254 31.7286 57.2031 31.63 57.0944C31.4103 56.8633 31.0695 56.75 30.7601 56.8497C30.4686 56.9403 30.2758 57.1759 30.1817 57.4614C30.1592 57.5248 30.1503 57.5882 30.1323 57.6562C30.1234 57.6879 30.1144 57.7151 30.1099 57.7468C30.092 57.8057 30.092 57.8057 30.1144 57.7468C30.1413 57.6607 30.1996 57.5928 30.2893 57.5475C30.6256 57.7423 30.9619 57.9371 31.3026 58.1364C31.2937 57.7921 31.3116 57.4478 31.352 57.1034C31.3968 56.75 31.0112 56.4102 30.6794 56.4238C30.2803 56.4419 30.0561 56.7229 30.0068 57.0989Z" fill="#727272"/>
<path d="M29.5942 50.1306C29.4687 50.6289 29.5315 51.1409 29.796 51.5804C30.1099 52.115 30.8318 51.9519 31.0246 51.4173C31.0964 51.2179 30.9887 51.5396 31.056 51.3357C31.0829 51.2587 31.1053 51.295 31.0381 51.3267C30.8318 51.4354 30.5538 51.3629 30.491 51.0911C30.5762 51.449 30.9753 51.662 31.3206 51.5668C31.6793 51.4671 31.8766 51.0911 31.7914 50.7286C31.6703 50.2121 31.1143 49.9357 30.6166 50.0535C30.1278 50.1759 29.8902 50.6063 29.7288 51.0503C30.1368 50.9959 30.5493 50.9416 30.9574 50.8872C30.8901 50.7694 30.8811 50.7785 30.8677 50.638C30.8766 50.7105 30.8722 50.6199 30.8722 50.5972C30.8811 50.3979 30.8453 50.6788 30.8901 50.484C30.9753 50.1396 30.778 49.7319 30.4193 49.6458C30.074 49.5733 29.6884 49.759 29.5942 50.1306Z" fill="#727272"/>
<path d="M10.3671 48.5268C10.1698 48.7896 9.99047 49.0659 9.83353 49.3559C9.56898 49.8316 10.0174 50.5747 10.5913 50.3527C10.7976 50.2756 10.9994 50.1941 11.2056 50.1171C10.9321 49.9585 10.6541 49.7999 10.3761 49.6413C10.412 49.7455 10.4299 49.8135 10.4254 49.9177C10.4209 50.262 10.7393 50.629 11.098 50.5973C11.4343 50.5701 11.7213 50.4886 12.0217 50.3436C12.349 50.185 12.4342 49.7093 12.2638 49.4148C12.0665 49.075 11.6719 49.0116 11.3446 49.1701C11.2774 49.2019 11.1518 49.2336 11.098 49.2381C11.3222 49.4646 11.5464 49.6912 11.7706 49.9177C11.7751 49.7002 11.7437 49.4828 11.6719 49.2789C11.5599 48.9572 11.2056 48.6672 10.8424 48.8031C10.6362 48.8802 10.4344 48.9617 10.2281 49.0387C10.4792 49.3695 10.7348 49.7048 10.9859 50.0355C11.1473 49.7455 11.3222 49.4692 11.5195 49.2064C11.7392 48.9119 11.5643 48.4452 11.2774 48.2776C10.9411 48.0828 10.5868 48.2323 10.3671 48.5268Z" fill="#727272"/>
<path d="M6.56026 56.1566C6.30468 56.7229 6.08496 57.3028 5.90561 57.9009C5.79351 58.2724 6.04012 58.6168 6.37642 58.7391C6.66339 58.8433 6.97278 58.7799 7.22388 58.6168C7.3315 58.5443 7.40324 58.4718 7.48395 58.3766C7.79334 58.0051 7.36737 58.4854 7.11627 58.1727C7.05798 58.0731 6.99969 57.9734 6.9414 57.8737C6.90552 57.7468 6.93243 58.0096 6.93243 58.0051C6.94588 58.1093 6.97278 58.218 7.02659 58.3132C7.12972 58.4899 7.31805 58.6349 7.51086 58.6892C7.87406 58.7889 8.34039 58.6485 8.49732 58.2769C8.64081 57.9417 8.59597 57.5475 8.25519 57.3481C7.9727 57.1805 7.47947 57.253 7.33598 57.5928C7.34943 57.5747 7.36289 57.5566 7.38082 57.543C7.47947 57.4841 7.57812 57.4252 7.67676 57.3663C7.81128 57.407 7.9458 57.4478 8.08032 57.4886C8.13861 57.5883 8.1969 57.6879 8.25519 57.7876C8.29106 57.9145 8.26416 57.6019 8.25519 57.5701C8.21932 57.4342 8.15654 57.3119 8.06686 57.2122C7.90096 57.0355 7.68573 56.9313 7.4436 56.9177C7.22388 56.9087 7.02211 56.9721 6.84275 57.099C6.75755 57.1579 6.68581 57.2258 6.61855 57.3074C6.34055 57.6336 6.53336 57.3572 6.73962 57.4297C6.89656 57.7106 7.05349 57.987 7.21043 58.2679C7.35392 57.7831 7.52431 57.3119 7.73057 56.8498C7.87854 56.5145 7.82473 56.1203 7.48844 55.921C7.1925 55.7443 6.70823 55.8213 6.56026 56.1566Z" fill="#727272"/>
<path d="M5.07158 64.1714C4.92809 64.9507 4.92809 65.7073 5.08054 66.4866C5.15677 66.8717 5.56929 67.0167 5.91007 66.9623C6.10737 66.9306 6.29121 66.8173 6.43021 66.6678C6.4885 66.6044 6.54231 66.5274 6.59163 66.4549C6.61854 66.4141 6.64095 66.3733 6.66337 66.328C6.70373 66.2646 6.69028 66.2691 6.61405 66.3326C6.49299 66.3326 6.3764 66.3326 6.25534 66.3326C6.28672 66.3416 6.31811 66.3507 6.3495 66.3597C6.25085 66.3008 6.15221 66.2419 6.05356 66.183C6.00424 66.0788 5.99975 66.0834 6.04459 66.1966C6.06701 66.251 6.08943 66.3054 6.11185 66.3597C6.18359 66.4957 6.28224 66.6044 6.40779 66.6859C6.70821 66.8898 6.98173 66.8762 7.30458 66.7267C7.63639 66.5772 7.7171 66.0879 7.54671 65.7979C7.34942 65.4536 6.95931 65.4037 6.6275 65.5533C6.60508 65.5623 6.57818 65.5759 6.55576 65.585C6.73063 65.5623 6.90102 65.5397 7.0759 65.517C7.04899 65.508 7.02209 65.5034 6.99519 65.4944C7.09383 65.5533 7.19248 65.6122 7.29113 65.6711C7.31803 65.7617 7.31803 65.7707 7.29561 65.7028C7.27319 65.6303 7.24629 65.5623 7.2149 65.4989C7.17454 65.4219 7.1297 65.3449 7.06693 65.2814C6.8786 65.0775 6.61854 64.9824 6.34501 65.0096C6.10737 65.0322 5.89662 65.15 5.73072 65.3222C5.65 65.4038 5.58275 65.4989 5.52445 65.5986C5.511 65.6258 5.49307 65.6529 5.47961 65.6801C5.39442 65.807 5.41684 65.7934 5.55136 65.6439C5.82488 65.8025 6.10288 65.961 6.38089 66.1196C6.27776 65.594 6.27327 65.0549 6.37192 64.5293C6.43918 64.1669 6.27327 63.7953 5.9011 63.6911C5.56929 63.605 5.13884 63.8089 5.07158 64.1714Z" fill="#727272"/>
<path d="M6.03115 73.9804C6.21947 74.361 6.40331 74.7416 6.59164 75.1222C6.75755 75.4574 7.21042 75.5345 7.51085 75.3668C7.75298 75.2309 7.91889 75.0134 7.99511 74.7416C8.03098 74.6193 8.0534 74.4652 8.03995 74.3384C8.0265 74.1934 8.08927 74.2341 8.01305 74.3021C7.9144 74.361 7.81575 74.4199 7.71711 74.4788C7.70814 74.4833 7.69917 74.4833 7.6902 74.4879C7.57811 74.4561 7.46601 74.4244 7.34942 74.3973C7.58259 74.5332 7.69469 74.7506 8.03547 74.7506C8.43902 74.7506 8.5287 74.5105 8.77083 74.2704C8.67219 74.3293 8.57354 74.3882 8.47489 74.4471C8.34486 74.3655 8.21483 74.284 8.08479 74.1979C8.1386 74.5604 8.59148 74.7597 8.91432 74.6736C9.29994 74.5649 9.43894 74.2024 9.38513 73.8354C9.32236 73.4277 8.94122 73.1241 8.54664 73.0833C8.08479 73.038 7.78437 73.2918 7.56465 73.6723C7.64537 73.5908 7.72608 73.5092 7.80679 73.4277C7.78437 73.4458 7.75746 73.4639 7.73504 73.482C7.84714 73.4503 7.95924 73.4186 8.07582 73.3914C8.0534 73.3914 8.0265 73.3914 8.00408 73.3914C8.11618 73.4231 8.22828 73.4549 8.34486 73.482C8.26415 73.4367 8.0534 73.2057 7.87405 73.1558C7.61846 73.0833 7.34942 73.1377 7.13868 73.2963C6.95035 73.4367 6.82032 73.6451 6.75306 73.8672C6.70822 74.0076 6.75755 74.293 6.6858 74.3927C6.76651 74.3112 6.84722 74.2296 6.92793 74.1481C6.90103 74.1617 6.87413 74.1798 6.84274 74.1934C7.14765 74.2749 7.45704 74.3565 7.76195 74.438C7.57362 74.0574 7.38978 73.6769 7.20145 73.2963C6.80687 72.5079 5.64553 73.1966 6.03115 73.9804Z" fill="#727272"/>
<path d="M10.1833 84.0749C10.1609 84.6594 10.7617 84.9901 11.2684 84.8315C11.5105 84.7545 11.6854 84.5824 11.802 84.3649C11.8199 84.3286 11.8379 84.2879 11.8558 84.2516C11.9544 84.093 11.8558 84.1383 11.5509 84.3966C11.4119 84.3785 11.4747 84.3785 11.5733 84.4328C11.8917 84.6095 12.3087 84.5099 12.4925 84.1882C12.6719 83.8756 12.5687 83.4361 12.2504 83.2594C11.9186 83.0736 11.5419 82.9649 11.1742 83.1189C10.9859 83.2005 10.829 83.3364 10.7214 83.5176C10.69 83.5675 10.6586 83.6264 10.6406 83.6853C10.6317 83.7034 10.6227 83.7215 10.6137 83.7396C10.8469 83.4769 11.089 83.4542 11.3446 83.6717C11.4029 83.7714 11.4612 83.871 11.5195 83.9707C11.524 84.0069 11.5285 84.0432 11.533 84.0794C11.5464 83.7215 11.2146 83.3817 10.8604 83.3998C10.4792 83.4134 10.1967 83.6943 10.1833 84.0749Z" fill="#727272"/>
<path d="M35.0378 50.407C35.1185 50.8148 35.2575 51.1954 35.4324 51.5714C35.5983 51.9203 36.0511 51.9656 36.3516 51.8161C36.5219 51.73 36.6609 51.5759 36.7506 51.4083C36.7775 51.3585 36.7955 51.3041 36.8224 51.2497C36.9659 50.9371 36.8179 51.4083 36.4726 51.3721C36.3605 51.3404 36.2484 51.3086 36.1318 51.2815C36.0556 51.2452 36.2439 51.3675 36.2439 51.3675C36.3157 51.4219 36.365 51.4536 36.4502 51.4899C36.6251 51.5669 36.8044 51.5805 36.9928 51.5533C37.3963 51.4853 37.634 51.2226 37.7864 50.8556C37.9254 50.5158 37.634 50.108 37.3156 50.0174C36.93 49.9086 36.6296 50.1533 36.4861 50.4931C36.643 50.1986 36.8403 50.1352 37.0735 50.3028C37.0555 50.2847 37.0376 50.2666 37.0152 50.253C36.93 50.1669 36.7686 50.0763 36.652 50.0446C36.4368 49.9857 36.2036 50.0219 36.0153 50.1352C35.8583 50.2303 35.7462 50.3798 35.67 50.5429C35.6521 50.5837 35.6296 50.629 35.6117 50.6743C35.5624 50.8193 35.5893 50.6834 35.67 50.6471C35.9749 50.7287 36.2843 50.8103 36.5892 50.8918C36.4637 50.6245 36.3874 50.3436 36.3291 50.0536C36.2619 49.6912 35.8314 49.4873 35.4996 49.5779C35.1364 49.673 34.9705 50.0446 35.0378 50.407Z" fill="#727272"/>
<path d="M36.5982 58.1862C36.6834 58.6166 36.773 59.0471 36.8582 59.4775C37.0017 60.1888 37.9478 60.0574 38.1541 59.4775C38.2214 59.2827 38.3379 59.1558 38.4859 59.0199C38.1317 58.9746 37.7819 58.9293 37.4277 58.884C37.5443 59.1558 37.6653 59.4322 37.7819 59.704C37.9164 60.0166 38.4366 60.1526 38.7011 59.9487C38.8626 59.8264 38.9926 59.7176 39.0957 59.5364C39.1316 59.473 39.1719 59.3959 39.1944 59.3234C39.2033 59.2917 39.2168 59.26 39.2347 59.2328C39.3423 59.0335 39.1361 58.97 38.6115 59.0425C38.5621 59.405 38.9567 59.7221 39.284 59.7221C39.6876 59.7221 39.9073 59.4095 39.9566 59.0425C40.0329 58.4762 39.5082 57.9642 38.9657 57.9642C38.6922 57.9642 38.4455 58.0865 38.2617 58.2814C38.1765 58.372 38.1182 58.4717 38.0599 58.5804C38.0241 58.6529 37.8851 58.8794 38.0241 58.7752C38.329 58.8568 38.6384 58.9383 38.9433 59.0199C38.8267 58.748 38.7056 58.4717 38.589 58.1998C38.4052 57.7739 37.8178 57.8011 37.5308 58.0639C37.208 58.3584 37.0017 58.7118 36.8538 59.1196C37.2842 59.1196 37.7192 59.1196 38.1496 59.1196C38.0644 58.6891 37.9747 58.2587 37.8895 57.8283C37.7236 56.9675 36.4233 57.3299 36.5982 58.1862Z" fill="#727272"/>
<path d="M37.7774 68.5798C37.7371 68.9196 37.7774 69.2685 37.8671 69.5947C37.9792 69.9889 38.4904 70.2562 38.8536 70.0025C39.0912 69.8348 39.2347 69.6536 39.3379 69.3818C39.3648 69.3138 39.3872 69.2413 39.4096 69.1688C39.45 69.0238 39.4096 69.2187 39.293 69.2368C39.172 69.2368 39.0554 69.2368 38.9343 69.2368C38.8222 69.1915 38.7505 69.1235 38.7325 69.0238C38.7191 68.9785 38.7236 68.9921 38.7505 69.0646C38.7639 69.1054 38.7774 69.1507 38.7908 69.1915C38.867 69.3999 38.9747 69.5675 39.145 69.708C39.5127 70.007 39.9297 69.9572 40.2885 69.6763C40.5754 69.4497 40.5216 68.9514 40.2885 68.7158C40.006 68.4303 39.6248 68.4892 39.3379 68.7158C39.3244 68.7293 39.3065 68.7384 39.293 68.752C39.3917 68.6931 39.4903 68.6342 39.589 68.5753C39.571 68.5798 39.5531 68.5844 39.5352 68.5889C39.6562 68.5889 39.7728 68.5889 39.8939 68.5889C39.9746 68.6025 40.0912 68.8517 40.0418 68.7022C40.006 68.5844 39.9611 68.462 39.8983 68.3578C39.71 68.0497 39.3782 67.873 39.024 67.9093C38.7101 67.941 38.4545 68.1404 38.2841 68.4031C38.2124 68.5164 38.1631 68.6433 38.1227 68.7701C38.1093 68.8109 38.0824 68.8698 38.0779 68.9106C38.0734 68.9695 38.0644 68.897 38.1765 68.82C38.5038 68.9559 38.8357 69.0918 39.163 69.2277C39.1002 69.0057 39.0912 68.8064 39.1181 68.5753C39.1585 68.2083 38.7774 67.8957 38.4456 67.8957C38.0554 67.9002 37.8223 68.2128 37.7774 68.5798Z" fill="#727272"/>
<path d="M37.4053 76.5811C37.3694 77.0251 37.4053 77.4601 37.4725 77.8995C37.5532 78.4115 38.2752 78.5429 38.598 78.1986C38.7146 78.0762 38.8356 77.9539 38.9612 77.8406C39.0733 77.741 39.1899 77.6413 39.2796 77.5779C38.9522 77.4419 38.6204 77.306 38.2931 77.1701C38.3334 77.2879 38.3334 77.152 38.32 77.2788C38.329 77.1837 38.2662 77.3649 38.311 77.2879C38.1362 77.6096 38.2348 78.0309 38.5532 78.2167C38.8626 78.3979 39.2975 78.2982 39.4724 77.972C39.6652 77.6141 39.728 77.1973 39.5934 76.8076C39.4634 76.4361 38.9791 76.1235 38.607 76.3999C38.2662 76.6536 37.9478 76.9254 37.6564 77.2335C38.033 77.3332 38.4052 77.4329 38.7818 77.5325C38.737 77.2381 38.737 76.8937 38.7594 76.572C38.7863 76.2186 38.4321 75.8788 38.0868 75.8924C37.6922 75.9196 37.4367 76.2005 37.4053 76.5811Z" fill="#727272"/>
<path d="M36.9748 85.4569C36.7327 85.8692 36.5488 86.3222 36.4457 86.7934C36.365 87.1514 36.5533 87.5274 36.9165 87.6316C37.2932 87.7358 37.616 87.5048 37.746 87.1559C37.7864 87.0426 37.9209 86.798 37.9927 86.7028C37.6743 86.7028 37.3604 86.7028 37.0421 86.7028C36.9614 86.6031 36.9389 86.4944 36.9703 86.3675C36.912 86.73 37.0645 87.097 37.4411 87.2057C37.764 87.2963 38.2079 87.097 38.2707 86.73C38.3334 86.3539 38.2662 86.0232 37.9971 85.7423C37.764 85.4976 37.2707 85.4569 37.0466 85.7423C36.7865 86.0685 36.5982 86.3993 36.4502 86.7934C36.8806 86.9158 37.3156 87.0336 37.746 87.1559C37.8312 86.7753 37.9433 86.4763 38.1406 86.1455C38.3245 85.8284 38.2124 85.398 37.8985 85.2167C37.5801 85.0264 37.1631 85.1397 36.9748 85.4569Z" fill="#727272"/>
<path d="M41.8982 88.1708C41.6202 88.5378 41.4902 88.9908 41.4677 89.4484C41.4543 89.7158 41.6471 89.974 41.8803 90.0692C42.1448 90.1779 42.4004 90.1145 42.6156 89.9287C42.9474 89.6433 43.2792 89.3533 43.6111 89.0679C43.2568 89.0225 42.9071 88.9772 42.5528 88.9319C42.5259 88.8912 42.5394 88.8323 42.5439 88.787C42.5484 88.7552 42.6201 88.6465 42.5484 88.7598C42.3556 89.0724 42.4811 89.5073 42.7905 89.6886C43.1133 89.8789 43.5169 89.7565 43.7097 89.4439C43.9384 89.0769 43.9339 88.6103 43.7142 88.2387C43.4765 87.84 42.9878 87.8174 42.656 88.1028C42.3242 88.3882 41.9924 88.6782 41.6605 88.9637C42.0417 89.1222 42.4273 89.2853 42.8084 89.4439C42.8174 89.24 42.7726 89.5345 42.8174 89.3397C42.8353 89.2717 42.8533 89.1993 42.8757 89.1313C42.8398 89.2264 42.9295 89.0361 42.9295 89.0316C42.9654 88.9682 43.0057 88.9093 43.0506 88.8549C43.2703 88.5604 43.0954 88.0937 42.8084 87.9261C42.4721 87.7222 42.1224 87.8763 41.8982 88.1708Z" fill="#727272"/>
<path d="M44.3823 79.2724C44.2881 79.7889 44.2343 80.3099 44.2298 80.84C44.2209 81.506 45.158 81.7779 45.4853 81.1843C45.6871 80.8128 45.9248 80.4911 46.2207 80.1921C45.9472 80.2284 45.6781 80.2646 45.4046 80.2963C45.3912 80.2873 45.3732 80.2737 45.3598 80.2646C45.3015 80.1649 45.2432 80.0652 45.1849 79.9656C45.1715 79.9248 45.2163 79.7979 45.1715 79.9429C45.1401 80.0335 45.1221 80.1785 45.1177 80.2646C45.1087 80.4821 45.1715 80.695 45.297 80.8717C45.4405 81.0665 45.6781 81.1979 45.9248 81.1979C46.0593 81.1979 46.2162 81.1572 46.3328 81.0937C46.3552 81.0801 46.3732 81.0711 46.3956 81.0575C46.5032 80.9895 46.4718 80.985 46.3014 81.0439C46.1893 81.0122 46.0772 80.9805 45.9606 80.9533C45.7813 80.8627 45.7678 80.7585 45.7858 80.6271C45.7364 80.9895 45.8754 81.3565 46.2566 81.4652C46.5704 81.5513 47.0323 81.3565 47.0861 80.9895C47.1399 80.5999 47.122 80.2057 46.826 79.9112C46.6781 79.7662 46.4539 79.6801 46.2476 79.6847C46.1131 79.6892 45.9561 79.7345 45.8396 79.7979C45.8082 79.8161 45.6602 79.8795 45.7454 79.8614C45.8665 79.8614 45.9831 79.8614 46.1041 79.8614C46.0862 79.8568 46.0638 79.8478 46.0458 79.8432C46.1445 79.9021 46.2431 79.961 46.3418 80.0199C46.3866 80.396 46.427 80.4911 46.4673 80.3054C46.4853 80.2601 46.4942 80.2148 46.5032 80.1649C46.5256 80.0607 46.5346 79.952 46.5256 79.8432C46.5077 79.5442 46.3552 79.2588 46.0817 79.1274C45.8127 78.9915 45.4898 79.0096 45.2656 79.2316C44.8935 79.6076 44.5751 80.0335 44.3195 80.4957C44.7365 80.6089 45.1535 80.7222 45.575 80.84C45.5795 80.4368 45.6109 80.0335 45.6826 79.6348C45.7454 79.2724 45.584 78.9008 45.2118 78.7966C44.88 78.706 44.4451 78.9099 44.3823 79.2724Z" fill="#727272"/>
<path d="M45.288 69.9164C45.0952 70.3831 45.0907 70.9132 45.2387 71.3935C45.445 72.0549 46.3148 72.0232 46.5346 71.3935C46.6467 71.0672 46.8484 70.809 47.104 70.5825C46.7229 70.4239 46.3373 70.2608 45.9561 70.1022C45.9696 70.3333 45.9875 70.5643 46.001 70.7909C46.0279 71.1896 46.2879 71.4252 46.6736 71.4705C46.8888 71.4977 47.0861 71.4252 47.2654 71.3074C47.3417 71.2575 47.4089 71.1986 47.4672 71.1307C47.4896 71.099 47.5165 71.0718 47.539 71.0446C47.6197 70.9585 47.5524 70.9766 47.3327 71.099C47.2206 71.0672 47.1085 71.0355 46.9919 71.0083C46.956 70.9676 46.9157 70.9268 46.8798 70.886C46.8484 70.7727 46.817 70.6595 46.7901 70.5417C46.7901 70.5598 46.7901 70.5779 46.7946 70.596C46.826 70.4828 46.8574 70.3695 46.8843 70.2517C46.8753 70.2653 46.8664 70.2834 46.8574 70.297C46.4 71.0446 47.5659 71.7287 48.0187 70.9812C48.2878 70.5417 48.0636 69.9708 47.5928 69.7986C47.3461 69.708 47.095 69.7261 46.8664 69.853C46.7722 69.9028 46.6915 69.9753 46.6153 70.0524C46.5973 70.0705 46.5839 70.0931 46.5659 70.1113C46.4763 70.2019 46.5121 70.2019 46.6736 70.1113C46.8978 70.3378 47.122 70.5643 47.3461 70.7909C47.3327 70.5598 47.3148 70.3287 47.3013 70.1022C47.261 69.4996 46.6018 69.2232 46.1534 69.6219C45.723 70.007 45.427 70.4873 45.2387 71.031C45.6692 71.031 46.1041 71.031 46.5346 71.031C46.4494 70.7546 46.4763 70.5417 46.5839 70.2789C46.7229 69.9391 46.4314 69.5313 46.1131 69.4407C45.7274 69.332 45.427 69.5766 45.288 69.9164Z" fill="#727272"/>
<path d="M44.7276 58.005C44.7634 58.3856 44.8038 58.7707 44.8397 59.1513C44.871 59.4865 45.0683 59.7765 45.4226 59.8173C45.7454 59.8581 46.0772 59.6632 46.1624 59.3325C46.2342 59.0425 46.3328 58.7797 46.4763 58.5215C46.0907 58.5215 45.7006 58.5215 45.315 58.5215C45.3822 58.6484 45.4495 58.7752 45.5123 58.8975C45.7589 59.3642 46.4135 59.3098 46.6736 58.8975C46.696 58.8613 46.7274 58.8296 46.7274 58.816C46.7991 58.7526 46.7498 58.7571 46.5884 58.8296C46.5167 58.8704 46.4449 58.8794 46.3732 58.8658C46.2925 58.7843 46.2118 58.7027 46.131 58.6212C46.1266 58.603 46.1221 58.5849 46.1176 58.5668C46.3777 59.3959 47.678 59.0425 47.4135 58.2043C47.2789 57.7785 46.9112 57.5111 46.4629 57.5247C46.0279 57.5383 45.723 57.8645 45.5078 58.2089C45.8934 58.2089 46.2835 58.2089 46.6691 58.2089C46.6019 58.082 46.5346 57.9552 46.4718 57.8328C46.2387 57.3888 45.5481 57.3933 45.3105 57.8328C45.1177 58.1908 44.9652 58.5713 44.8621 58.97C45.3015 59.0289 45.7409 59.0924 46.1848 59.1513C46.149 58.7707 46.1086 58.3856 46.0727 58.005C46.0369 57.638 45.7903 57.3254 45.4002 57.3254C45.0639 57.3254 44.6917 57.638 44.7276 58.005Z" fill="#727272"/>
<path d="M41.396 50.407C41.5664 50.8419 41.7771 51.2044 42.0731 51.5668C42.4138 51.9837 43.055 51.7118 43.1985 51.2678C43.3017 50.9416 43.3465 50.5882 43.3151 50.2484C42.8981 50.3617 42.4811 50.4749 42.0596 50.5927C42.1896 50.8465 42.3735 51.0775 42.5932 51.2587C42.8757 51.4898 43.2703 51.5351 43.5438 51.2587C43.7814 51.0186 43.8263 50.5293 43.5438 50.2982C43.4631 50.2348 43.3869 50.1623 43.3241 50.0853C43.2568 49.9992 43.3644 50.1532 43.3061 50.0581C43.2748 50.0083 43.2478 49.9584 43.2209 49.9086C43.0819 49.6367 42.7367 49.5144 42.4587 49.5914C42.1941 49.6639 41.9385 49.9539 41.9654 50.2484C41.9923 50.5338 41.9834 50.6471 41.8982 50.9054C42.2748 50.8057 42.647 50.706 43.0237 50.6063C42.9654 50.5384 42.9071 50.4523 42.8398 50.3345C42.8084 50.2801 42.777 50.2212 42.7456 50.1668C42.7367 50.1532 42.6649 49.9811 42.6874 50.049C42.5528 49.7092 42.239 49.4691 41.8578 49.5733C41.544 49.6594 41.2615 50.0626 41.396 50.407Z" fill="#727272"/>
<path d="M48.1891 49.8814C48.2429 50.1669 48.3506 50.4433 48.4985 50.697C48.651 50.9552 48.9693 51.0911 49.2563 51.0096C49.5612 50.9235 49.7226 50.6562 49.7495 50.3526C49.7809 50.0355 49.8123 49.7138 49.8437 49.3966C49.5074 49.5915 49.1711 49.7863 48.8303 49.9856C49.0366 50.1397 49.2429 50.2983 49.4491 50.4523C49.7406 50.6698 50.2024 50.5021 50.3683 50.2077C50.5701 49.8633 50.4177 49.4963 50.1262 49.2788C49.9199 49.1248 49.7137 48.9662 49.5074 48.8122C49.3191 48.6717 49.0187 48.6989 48.8303 48.8122C48.6106 48.9436 48.5209 49.152 48.4985 49.4012C48.4671 49.7183 48.4358 50.04 48.4044 50.3572C48.8214 50.2439 49.2384 50.1306 49.6599 50.0128C49.5523 49.8316 49.5254 49.7455 49.485 49.5235C49.4177 49.1611 48.9873 48.9572 48.6555 49.0478C48.2878 49.1475 48.1264 49.519 48.1891 49.8814Z" fill="#727272"/>
<path d="M51.1754 58.0367C51.2382 58.4128 51.3279 58.7753 51.449 59.1377C51.588 59.5681 52.0364 59.7494 52.4354 59.5455C52.682 59.4186 52.839 59.183 52.9018 58.9157C52.9331 58.7934 52.9376 58.662 52.9466 58.5306C52.9466 58.4853 52.9511 58.44 52.9556 58.3947C52.9466 58.585 52.821 58.7073 52.5744 58.7707C52.4623 58.739 52.3502 58.7073 52.2337 58.6801C52.7628 58.9429 53.1753 59.1196 53.7806 58.9837C54.6236 58.7934 54.2694 57.4795 53.4219 57.6743C53.2112 57.7241 53.0901 57.5973 52.9107 57.5067C52.5969 57.3526 52.2381 57.3753 51.9646 57.5927C51.7584 57.7558 51.6642 57.9824 51.6283 58.2406C51.6149 58.3403 51.6104 58.4355 51.6014 58.5351C51.5925 58.6212 51.5969 58.6257 51.6059 58.5578C51.5611 58.7118 51.6104 58.6484 51.7584 58.3766C52.0857 58.5125 52.4175 58.6484 52.7448 58.7843C52.6282 58.4219 52.5386 58.0594 52.4713 57.6833C52.4085 57.3209 51.9691 57.117 51.6418 57.2076C51.2651 57.3028 51.1127 57.6743 51.1754 58.0367Z" fill="#727272"/>
<path d="M52.7403 67.8685C52.6955 68.2128 52.6462 68.5572 52.6013 68.9015C52.561 69.205 52.6282 69.5041 52.9107 69.6672C53.1439 69.8076 53.5474 69.794 53.7268 69.563C53.8254 69.4316 53.9241 69.3228 54.081 69.2685C53.7985 69.051 53.5116 68.8335 53.2291 68.6115C53.238 68.8834 53.2425 69.1552 53.2515 69.4271C53.265 69.8801 53.6685 70.1882 54.1034 70.084C54.3187 70.0342 54.498 69.9254 54.6684 69.7895L54.8343 69.6581C54.8209 69.64 54.6057 69.6536 54.5563 69.5992C54.498 69.4995 54.4397 69.3999 54.3815 69.3002C54.3904 69.3228 54.3949 69.3455 54.4039 69.3682C54.6864 70.1882 55.9867 69.8348 55.6997 69.0057C55.5428 68.5572 55.1841 68.3034 54.7088 68.317C54.516 68.3216 54.3142 68.385 54.1483 68.4847C54.0138 68.5662 53.8882 68.7339 53.7358 68.7701C54.0183 68.9876 54.3052 69.205 54.5877 69.4271C54.5787 69.1552 54.5743 68.8834 54.5653 68.6115C54.5563 68.1947 54.1393 67.8096 53.7133 67.9546C53.3412 68.086 53.0094 68.2853 52.7672 68.6025C53.1439 68.8245 53.5161 69.0419 53.8927 69.2639C53.9375 68.9196 53.9869 68.5753 54.0317 68.2309C54.081 67.8685 53.9465 67.5015 53.5609 67.3928C53.256 67.3067 52.7897 67.5015 52.7403 67.8685Z" fill="#727272"/>
<path d="M50.8078 79.1228C50.7136 79.5079 50.6194 79.893 50.5298 80.2781C50.4446 80.6315 50.6374 81.0212 51.0006 81.1163C51.3234 81.2024 51.6328 81.139 51.8974 80.926C52.1081 80.7538 52.1843 80.4865 52.3771 80.3189C52.2785 80.3778 52.1798 80.4367 52.0812 80.4956C52.1126 80.482 52.144 80.4684 52.1798 80.4548C52.0588 80.4548 51.9422 80.4548 51.8211 80.4548C51.8525 80.4593 51.8839 80.4684 51.9198 80.4729C51.7853 80.3687 51.6507 80.2645 51.5162 80.1603C51.5072 80.1059 51.5117 80.1195 51.5252 80.2101C51.5566 80.2872 51.588 80.3642 51.6238 80.4412C51.7135 80.5907 51.8525 80.6949 52.005 80.7629C52.1664 80.8354 52.3457 80.8445 52.5206 80.8082C52.5789 80.8037 52.6372 80.7856 52.691 80.7629C52.9556 80.6768 52.9018 80.6496 52.5296 80.6859C52.4489 80.6043 52.3682 80.5228 52.2875 80.4412C52.2964 80.4548 52.3099 80.4729 52.3188 80.4865C52.2875 80.3733 52.2561 80.26 52.2292 80.1422C52.2292 80.1603 52.2292 80.183 52.2247 80.2011C52.1843 81.0755 53.5295 81.0755 53.5699 80.2011C53.5878 79.8296 53.3367 79.5169 52.9914 79.4082C52.83 79.3584 52.6507 79.3538 52.4847 79.3946C52.4265 79.4082 52.1978 79.4535 52.265 79.4626C52.3771 79.4943 52.4892 79.526 52.6058 79.5532C52.5834 79.5396 52.5655 79.5215 52.543 79.5079C52.6237 79.5894 52.7045 79.671 52.7852 79.7525C52.7538 79.6891 52.682 79.449 52.5699 79.3312C52.3906 79.15 52.0633 79.0684 51.8211 79.1364C51.6238 79.1907 51.4534 79.3085 51.3189 79.458C51.2472 79.5396 51.1844 79.6302 51.1306 79.7254C51.1127 79.7571 51.0992 79.7888 51.0813 79.816C50.9557 79.9881 51.0499 79.9836 51.3638 79.7979C51.5207 80.0788 51.6776 80.3551 51.8346 80.636C51.9287 80.2509 52.0229 79.8658 52.1126 79.4807C52.3099 78.6335 51.014 78.271 50.8078 79.1228Z" fill="#727272"/>
<path d="M49.3819 87.2963C49.4805 87.3733 49.5792 87.4503 49.6778 87.5273C49.9648 87.7539 50.4311 87.5726 50.597 87.2827C50.7988 86.9338 50.6463 86.5759 50.3549 86.3539C50.2562 86.2768 50.1576 86.1998 50.0589 86.1228C49.772 85.8963 49.3056 86.0775 49.1397 86.3675C48.938 86.7163 49.0949 87.0697 49.3819 87.2963Z" fill="#727272"/>
</g>
<g clip-path="url(#clip1_4_3353)">
<path d="M19.2992 44.96C19.8584 40.3049 16.6253 36.8293 13.1803 34.1488C11.1737 32.5852 9.21221 31.2808 7.90455 29.0426C7.2372 27.8945 6.5969 26.5989 6.22264 25.3257C5.49215 22.8463 6.75472 18.9507 9.87957 21.8098C11.6787 23.4583 12.0936 25.5848 13.4689 27.4164C14.2444 28.4529 15.4349 29.0068 16.6749 28.3457C20.404 26.3621 17.5181 19.4823 16.6839 16.7482C15.6738 13.4379 15.1418 10.2526 16.8417 7.06735C17.4009 6.02197 18.0276 4.94532 18.7446 4.0027C19.209 3.39513 19.7997 2.73842 20.4626 2.31848C21.8334 1.44287 22.6585 1.44287 24.1736 1.90748C25.7879 2.40336 25.8014 2.48824 26.1306 4.02503C26.2839 4.73535 26.347 5.51715 26.3831 6.24981C26.4598 7.8 26.3335 9.3636 26.0134 10.887C25.4136 13.7774 23.6866 16.3328 23.3079 19.2679C23.0283 21.4256 23.2222 28.2831 26.8115 27.6398C31.0185 26.8848 30.7164 20.1926 34.9099 19.2991C38.4 18.5531 40.1045 22.3549 38.6255 24.9638C37.8229 26.3845 36.4882 27.4835 35.203 28.4529C32.9124 30.1818 30.1122 31.0842 27.8621 32.831C23.7903 36.0028 25.1431 40.9885 26.816 45.0762C27.1407 45.8669 28.4483 45.5184 28.1191 44.7188C26.9919 41.9624 25.576 38.5895 27.1001 35.6946C28.5114 33.0141 32.236 32.076 34.6394 30.4945C37.886 28.3591 42.544 24.3384 39.7934 20.1077C37.4937 16.5651 33.0386 17.7489 30.9374 20.7153C30.3016 21.6133 29.8101 22.6006 29.2464 23.5432C28.9894 23.9721 28.7324 24.4054 28.4303 24.8075C28.2138 25.0666 27.9974 25.3212 27.781 25.5803C26.072 25.9556 25.1882 25.5044 25.1296 24.2178C23.4161 20.6081 25.4903 16.9091 26.6537 13.5808C27.5194 11.1059 27.8892 8.47012 27.7043 5.85668C27.578 4.04737 27.3887 1.59923 25.6707 0.51811C24.1601 -0.43345 21.8379 0.111575 20.3544 0.853167C18.1449 1.96109 16.7921 4.31095 15.6738 6.4017C12.8015 11.7715 15.7009 16.5025 16.7696 21.9126C16.9094 22.6318 17.2656 24.2088 17.0266 25.0085C16.2961 25.6697 15.5656 26.3264 14.8306 26.9876C14.4113 26.4559 14.0956 25.8752 13.8747 25.2363C13.4508 24.3027 13.0044 23.4315 12.3867 22.6006C11.4127 21.2871 9.57295 19.1294 7.69262 19.2366C5.86641 19.3438 4.79323 21.2559 4.59934 22.8507C4.31075 25.2095 5.58684 27.7247 6.74119 29.7261C9.9427 35.2702 18.8663 37.3118 17.9465 44.9689C17.8473 45.8133 19.2 45.8088 19.2992 44.96Z" fill="#46A358"/>
<path d="M30.987 22.6855C31.961 17.7936 30.1212 13.3218 29.7379 8.49248C29.508 5.60653 30.748 0.991685 34.689 2.30511C37.6245 3.28347 38.7382 6.75019 38.5398 9.52446C38.3955 11.5527 37.4125 17.5033 41.3535 16.9493C44.7354 16.4758 46.4805 10.8915 48.1218 8.52375C49.5287 6.49555 52.6355 3.53365 55.368 4.36012C59.6968 5.66907 56.9237 10.8155 54.9306 12.8393C51.5713 16.2479 47.991 19.2634 45.0285 23.0607C43.3105 25.2632 41.8225 28.8818 45.6327 29.8691C47.0982 30.2488 48.5096 29.744 49.8308 29.1454C50.8949 28.6629 51.9095 28.0866 53.0413 27.7694C55.1065 27.1886 57.5009 27.6443 56.1346 30.1863C52.9376 36.1413 45.6192 31.7499 40.8981 34.2472C36.894 36.3692 35.9606 41.06 36.3393 45.1745C36.416 46.0277 37.7733 46.0367 37.6921 45.1745C37.4261 42.3064 37.656 39.206 39.6581 36.9321C42.2464 33.9925 45.7004 35.0647 49.1273 34.9977C52.6265 34.9307 57.1311 33.2509 57.8571 29.3777C58.6507 25.1336 53.7718 25.9556 51.2692 26.9787C50.1644 27.4299 49.1319 28.1313 47.9775 28.4618C47.0621 28.7254 45.6147 28.8684 44.8932 28.0151C44.1943 27.1842 44.758 25.7859 45.1908 25.08C46.7736 22.4889 49.1995 20.1256 51.3549 17.9947C54.3264 15.0551 59.3947 11.9369 58.9573 7.14332C58.6236 3.47557 55.2057 2.13088 52.0538 3.50684C50.1599 4.33331 48.5953 5.64674 47.3597 7.28628C45.7455 9.42617 44.8842 12.3657 42.9588 14.251C42.2644 14.93 41.5835 16.373 40.0324 14.9568C39.3425 14.3269 39.5499 12.6472 39.622 11.785C39.7167 10.6547 39.9602 9.55126 39.9241 8.41207C39.8655 6.48661 39.2207 4.53435 37.9627 3.04223C35.3022 -0.102832 30.7345 0.0356578 28.9669 3.98039C27.9117 6.33919 28.3762 9.03751 28.8181 11.4857C29.4674 15.0998 30.4188 18.6469 29.6838 22.3281C29.517 23.1724 30.8201 23.5343 30.987 22.6855Z" fill="#46A358"/>
<path d="M30.6849 31.1602C30.0491 35.7661 29.0075 40.2782 27.5555 44.7009C27.285 45.5229 28.5926 45.8758 28.8587 45.0583C30.3106 40.6356 31.3522 36.1235 31.988 31.5176C32.1053 30.6687 30.8021 30.3069 30.6849 31.1602Z" fill="#46A358"/>
<path d="M14.506 44.1917C14.3301 40.6445 11.8456 38.25 8.98676 36.4273C7.13349 35.2434 5.10437 34.2561 3.51263 32.7149C2.82724 32.0537 1.55115 30.7715 1.48351 29.744C1.25354 26.3175 5.47863 28.9846 6.41653 29.7753C7.07487 30.3337 8.03533 29.3866 7.37248 28.8282C5.89798 27.5818 3.2511 25.9601 1.22649 26.8983C-0.405833 27.6533 -0.135283 29.5251 0.491491 30.8743C3.12935 36.606 12.806 37.2627 13.1532 44.1917C13.1938 45.0494 14.5511 45.0539 14.506 44.1917Z" fill="#46A358"/>
<path d="M44.8391 45.5185C46.5256 42.9989 48.7486 40.9394 51.4721 39.5545C53.9522 38.2947 57.0274 38.0758 59.2234 36.2933C61.744 34.2472 61.8748 29.2303 57.7038 29.3598C56.8335 29.3866 56.8335 30.7269 57.7038 30.7C59.3496 30.9234 60.017 31.8258 59.7149 33.4028C59.3767 34.3097 58.804 35.0245 57.9969 35.5427C57.0094 36.2352 55.8099 36.5524 54.6736 36.9098C53.2262 37.3654 51.8148 37.8435 50.4756 38.5582C47.6889 40.0504 45.4118 42.2394 43.6668 44.8439C43.1843 45.5632 44.3567 46.2333 44.8391 45.5185Z" fill="#46A358"/>
<path d="M48.5141 33.7289C42.7829 34.8011 40.6681 40.4524 39.3109 45.3978C39.0809 46.2332 40.3886 46.5861 40.614 45.7552C41.8495 41.2565 43.6307 36.0028 48.8748 35.0244C49.7271 34.8591 49.3663 33.5681 48.5141 33.7289Z" fill="#46A358"/>
<path d="M18.2937 13.3307C17.6218 10.6547 18.4605 7.72412 20.6339 5.92822C21.0713 5.54849 21.5673 5.2581 22.1129 5.05707C23.6145 5.37426 24.3134 6.16946 24.2097 7.44267C24.2368 8.18426 24.0925 8.91692 23.9166 9.63171C23.5604 11.0747 22.9336 12.4462 22.4692 13.8579C21.2742 17.4944 19.5562 23.4405 22.7848 26.5364C23.0959 26.8357 23.5784 26.3622 23.2628 26.0629C20.431 23.3512 21.883 18.1377 22.8524 14.8899C23.6911 12.0754 25.9683 8.33615 24.4307 5.37872C23.2312 3.07353 20.4806 4.94538 19.3127 6.29454C17.5857 8.29148 17.0041 10.9764 17.6398 13.5094C17.7481 13.9294 18.3974 13.7507 18.2937 13.3307Z" fill="#46A358"/>
<path d="M32.5877 24.182C32.9755 23.3288 33.7601 22.1226 34.8107 21.9796C36.4115 21.7607 37.2367 23.7532 36.3799 25.0711C35.5728 26.313 34.0352 27.1797 32.7095 27.7113C30.5045 28.5914 29.0255 29.8065 27.4247 31.5444C27.1316 31.8615 27.6096 32.3396 27.9027 32.0179C28.8722 30.9591 29.8642 29.8601 31.1268 29.1275C32.1323 28.5422 33.3002 28.3144 34.3102 27.7426C35.5412 27.0412 37.5343 25.5267 37.6786 23.9989C37.7958 22.7659 36.4837 21.3363 35.2572 21.2604C33.7782 21.1665 32.5426 22.6676 32.006 23.847C31.8257 24.2312 32.4119 24.5752 32.5877 24.182Z" fill="#46A358"/>
<path d="M7.30033 24.9595C7.44913 23.7846 7.89554 23.3512 8.63504 23.6684C8.89657 23.6729 9.11301 23.7667 9.29338 23.9498C9.64961 24.1822 9.88408 24.5261 10.096 24.888C10.4748 25.5358 10.6506 26.2908 10.9302 26.9788C11.2864 27.8633 11.7554 28.5826 12.5625 29.1097C12.9278 29.351 13.266 28.7702 12.9052 28.529C10.9212 27.2245 11.4758 23.8382 8.99578 23.0162C7.50775 22.5247 6.01071 23.8024 6.71865 25.2945C6.90352 25.6877 7.48521 25.3482 7.30033 24.9595Z" fill="#46A358"/>
<path d="M31.5326 7.6214C31.1809 5.69147 33.2326 4.15468 34.8017 5.56192C35.6675 6.33925 36.0012 7.76882 36.0057 8.88568C36.0147 10.4001 35.3158 11.7538 35.6134 13.2727C35.6946 13.6971 36.3484 13.5184 36.2672 13.094C35.893 11.1864 36.9662 9.35922 36.4837 7.38016C36.1951 6.19629 35.6089 4.8784 34.3734 4.43166C32.1458 3.63199 30.509 5.76742 30.8788 7.79563C30.9599 8.22003 31.6093 8.04133 31.5326 7.6214Z" fill="#46A358"/>
<path d="M31.1944 12.0396C32.2947 14.3314 32.8358 16.3417 32.7546 18.8837C32.7411 19.317 33.4174 19.3125 33.431 18.8837C33.5166 16.2121 32.9304 14.0991 31.7806 11.7045C31.5912 11.3159 31.0095 11.6554 31.1944 12.0396Z" fill="#46A358"/>
<path d="M48.7351 10.1231C49.3889 8.64442 50.6244 7.71073 52.0538 7.00935C52.4641 6.79491 52.888 6.62068 53.3299 6.48219C55.2373 7.1255 55.7198 8.01452 54.7774 9.15818C54.3264 9.85956 53.6726 10.4895 53.109 11.106C50.9626 13.4514 48.6449 15.6225 46.1964 17.6507C45.8627 17.9277 46.3407 18.4013 46.6744 18.1243C48.8884 16.2926 50.9942 14.3448 52.9602 12.2541C54.1416 10.9988 56.4097 9.13584 55.9137 7.15231C54.9262 3.22098 48.9786 7.9073 48.1489 9.78808C47.9775 10.1767 48.5637 10.5163 48.7351 10.1231Z" fill="#46A358"/>
<path d="M44.9158 20.0854C42.7559 21.6579 41.4437 23.9497 41.1957 26.59C41.1551 27.0188 41.8315 27.0144 41.8721 26.59C42.0976 24.2044 43.306 22.0823 45.2585 20.6617C45.6057 20.4115 45.2675 19.8263 44.9158 20.0854Z" fill="#46A358"/>
<path d="M49.195 31.263C49.6369 30.9994 50.0788 30.7224 50.5432 30.4946C50.8949 30.3025 51.2647 30.155 51.6525 30.0523C52.3785 29.753 52.622 30.3114 52.3785 31.7276C51.9005 32.6613 49.3122 32.697 48.5096 32.6479C46.503 32.5317 44.6137 31.9867 42.6341 32.5898C42.2193 32.7149 42.3952 33.3626 42.8145 33.2376C45.1908 32.5094 47.504 33.5681 49.9029 33.3046C51.2061 33.1571 53.0503 32.563 53.6996 31.3121C54.0604 30.6152 53.9747 29.6949 53.1856 29.3152C51.8915 28.6942 49.8714 30.0702 48.8523 30.6822C48.4825 30.91 48.8207 31.4908 49.195 31.263Z" fill="#46A358"/>
<path d="M39.1396 33.7557C35.6224 36.5836 34.3418 40.8723 33.9856 45.1968C33.9495 45.6256 34.6259 45.6256 34.662 45.1968C35.0047 41.0376 36.2357 36.9455 39.6175 34.2293C39.9557 33.9568 39.4732 33.4877 39.1396 33.7557Z" fill="#46A358"/>
<path d="M24.0023 34.895C22.9562 36.6909 22.9877 38.6476 23.2177 40.6579C23.4116 42.3466 23.6325 44.004 24.8094 45.3174C25.098 45.6391 25.576 45.1656 25.2874 44.8439C24.1331 43.5573 23.9888 41.7703 23.8354 40.1263C23.6731 38.4153 23.6957 36.7579 24.5885 35.23C24.8049 34.8592 24.2232 34.5242 24.0023 34.895Z" fill="#46A358"/>
<path d="M5.34337 30.4812C3.38639 30.508 4.16196 32.5496 5.20809 33.2822C6.51575 34.1981 8.00377 34.8101 9.3926 35.583C11.0294 36.4943 11.6878 38.0311 12.9458 39.3133C13.2479 39.6215 13.7259 39.148 13.4238 38.8397C12.1748 37.5665 11.5705 36.0431 9.96075 35.1317C9.1491 34.6716 8.29687 34.2829 7.48071 33.8407C7.05685 33.6128 6.63299 33.385 6.22716 33.1303C6.06483 33.0321 5.89799 32.9293 5.73566 32.831C4.92852 32.5272 4.80227 31.9688 5.34787 31.1557C5.77625 31.1468 5.77625 30.4767 5.34337 30.4812Z" fill="#46A358"/>
<path d="M56.2383 33.5682C56.2609 34.4617 55.846 34.9486 54.9848 35.0335C54.5699 35.1988 54.1596 35.3596 53.7448 35.5249C53.127 35.7706 52.5047 36.0163 51.887 36.262C50.444 36.8339 48.9966 37.4102 47.5537 37.982C47.1524 38.1383 47.3282 38.7906 47.734 38.6298C49.3844 37.973 51.0347 37.3208 52.6851 36.6641C53.9071 36.1771 55.4673 35.8287 56.554 35.0692C57.4964 34.4081 57.5234 33.0366 56.2338 32.8981C55.8055 32.8489 55.81 33.5235 56.2383 33.5682Z" fill="#46A358"/>
<path d="M46.0025 38.9111C44.1898 40.6087 42.7604 42.6012 41.7504 44.8617C41.5745 45.2504 42.1562 45.5944 42.3366 45.2013C43.3241 42.9943 44.7084 41.0466 46.485 39.3891C46.7961 39.0898 46.3182 38.6163 46.0025 38.9111Z" fill="#46A358"/>
<path d="M14.5511 41.8418C15.0696 42.6013 15.4033 43.4188 15.5611 44.3212C15.6333 44.7456 16.2871 44.5669 16.215 44.1425C16.0481 43.191 15.6829 42.3019 15.1373 41.5023C14.8938 41.1493 14.3076 41.4844 14.5511 41.8418Z" fill="#46A358"/>
</g>
<defs>
<clipPath id="clip0_4_3353">
<rect width="55" height="48.2388" fill="white" transform="translate(3 45.2239)"/>
</clipPath>
<clipPath id="clip1_4_3353">
<rect width="61" height="46.2289" fill="white"/>
</clipPath>
</defs>
</svg>
