<svg width="83" height="43" viewBox="0 0 83 43" fill="none" xmlns="http://www.w3.org/2000/svg">
<g clip-path="url(#clip0_4_3832)">
<path d="M30.3859 3.32584C28.0446 9.5563 26.3971 16.0673 25.8568 22.7535C25.3966 28.4686 25.5367 34.6324 28.5582 39.6182C28.9051 40.1897 29.7589 39.6427 29.412 39.0677C26.3804 34.0679 26.3871 27.7954 26.914 22.0838C27.501 15.7201 29.1285 9.51774 31.3564 3.5853C31.5898 2.9577 30.6193 2.70525 30.3859 3.32584Z" fill="#727272"/>
<path d="M60.7884 2.36155C66.1145 6.56895 66.1212 14.2825 66.6948 20.6147C66.985 23.8088 67.3852 27.0134 67.5253 30.2216C67.6553 33.1527 67.4219 36.2662 65.2141 38.3419C64.7338 38.7941 65.4575 39.5199 65.9344 39.0711C67.8788 37.2444 68.4791 34.6288 68.5458 31.9746C68.6425 28.195 68.0322 24.3522 67.692 20.5971C67.095 13.9985 67.0217 5.98342 61.4788 1.60422C60.9718 1.20101 60.2748 1.95484 60.7884 2.36155Z" fill="#727272"/>
<path d="M28.7583 39.8285C31.5832 40.8979 34.4713 41.1643 37.4429 41.4273C40.7313 41.7183 44.0497 42.1566 47.3547 42.0339C50.7098 41.9112 54.0749 41.4098 57.41 41.0311C60.3282 40.698 63.223 40.2773 65.9444 39.0571C66.5281 38.7942 66.2513 37.7809 65.6576 38.0474C62.8361 39.3131 59.8412 39.7058 56.8163 40.0424C53.668 40.393 50.4997 40.8663 47.3347 40.982C44.2331 41.0977 41.1248 40.7015 38.0365 40.4316C34.9583 40.1581 31.9367 39.9197 29.0051 38.8117C28.3982 38.5768 28.158 39.6006 28.7583 39.8285Z" fill="#727272"/>
<path d="M30.626 3.91489C32.9539 4.91415 35.3318 5.7977 37.8431 6.10975C40.4545 6.43232 43.1158 5.9695 45.7439 6.03963C47.2013 6.07819 48.512 6.28506 49.9828 6.06417C51.2501 5.87133 52.5174 5.60486 53.7481 5.23671C56.2994 4.47237 58.7707 3.40649 61.2753 2.48788C61.879 2.26699 61.5988 1.25721 60.9885 1.4781C56.0859 3.27677 51.4902 5.37696 46.1975 5.01582C43.9963 4.86506 41.8052 5.20516 39.6107 5.18412C36.6558 5.15256 33.8143 4.15681 31.1062 2.99627C30.5226 2.74383 30.029 3.65894 30.626 3.91489Z" fill="#727272"/>
<path d="M0.663676 7.0809C6.2666 8.00653 11.4793 10.7939 15.3847 15.1381C19.1633 19.342 21.2878 24.8817 25.4099 28.7841C25.8868 29.2364 26.5839 28.479 26.1036 28.0268C21.7347 23.8895 19.5502 17.9044 15.348 13.6024C11.4126 9.57379 6.3233 6.95468 0.910471 6.0606C0.276807 5.95542 0.0266764 6.97571 0.663676 7.0809Z" fill="#727272"/>
<path d="M1.53747 5.19808C6.62346 3.97794 12.0296 4.70371 16.5987 7.39295C20.2439 9.53872 23.2355 12.9292 27.5877 13.392C28.2281 13.4586 28.2014 12.4068 27.5677 12.3401C22.6852 11.8212 19.1633 7.1966 14.761 5.29626C10.4688 3.445 5.76301 3.10841 1.25399 4.18831C0.623656 4.33907 0.910473 5.34885 1.53747 5.19808Z" fill="#727272"/>
<path d="M0.723709 4.49333C0.340175 5.04731 0.0933795 5.69595 0.00666752 6.37264C-0.0300183 6.65664 0.0867093 6.93363 0.370191 7.01076C0.606981 7.07738 0.940489 6.91259 0.977174 6.62859C1.05388 6.02553 1.25732 5.4961 1.5975 5.00173C1.75758 4.77032 1.61751 4.4162 1.40406 4.28647C1.14726 4.13571 0.880457 4.26543 0.723709 4.49333Z" fill="#727272"/>
<path d="M64.8105 5.45389C66.8783 1.29206 73.4483 0.755621 77.1569 2.66298C81.1757 4.73162 83.03 9.74193 81.3825 14.1246C79.9484 17.9429 76.2631 19.8116 73.2316 22.0135C71.9542 22.9427 70.5335 23.9875 69.6497 25.3584C68.7259 26.7924 68.8459 28.6156 67.9321 30.0462C67.572 30.6106 68.4491 31.1155 68.8059 30.5581C69.3829 29.657 69.5496 28.6963 69.8064 27.6655C70.17 26.2244 70.897 25.2988 71.9409 24.3556C73.7385 22.7323 75.8463 21.5577 77.7606 20.1027C81.149 17.5256 83.5269 13.8652 82.8966 9.27912C82.3196 5.10327 79.1246 1.64969 75.1792 0.888855C71.2038 0.121004 65.9644 0.860806 63.9334 4.94549C63.6366 5.54154 64.5104 6.05344 64.8105 5.45389Z" fill="#727272"/>
<path d="M65.8244 8.1012C67.2084 5.1981 70.3601 4.44778 73.2216 4.67918C75.1292 4.83346 76.3065 5.62234 77.3037 7.34387C78.4076 9.24422 78.3542 10.8535 77.7306 12.8801C76.7501 16.0567 74.9825 17.5293 72.2644 19.0194C70.4835 19.9941 67.7654 21.2704 67.055 23.4267C66.8449 24.0683 67.8154 24.3207 68.0255 23.6861C68.6725 21.7227 71.8475 20.4464 73.4817 19.5383C74.8991 18.7529 76.2265 17.8869 77.1836 16.502C78.6978 14.3141 79.9417 10.7413 78.8445 8.15029C77.5038 4.98071 75.4527 3.57474 72.1777 3.59928C69.2628 3.62032 66.3246 4.71425 64.9539 7.5893C64.6638 8.19236 65.5376 8.70427 65.8244 8.1012Z" fill="#727272"/>
<path d="M47.308 15.7096C44.3665 16.1689 41.8819 18.4689 41.585 21.6841C41.3016 24.7485 43.2693 28.7385 46.611 28.5036C49.6593 28.2897 52.3673 25.1833 52.6475 22.0768C52.9576 18.6583 50.5197 15.678 47.208 15.8288C46.5643 15.8568 46.5843 16.9087 47.228 16.8807C50.1328 16.7474 52.1339 19.5383 51.5903 22.4765C51.15 24.8537 48.9689 27.2519 46.591 27.4553C43.6695 27.7042 42.1787 23.8158 42.6423 21.2914C43.0858 18.8722 45.0569 17.1191 47.328 16.7649C47.955 16.6633 47.945 15.6079 47.308 15.7096Z" fill="#727272"/>
<path d="M47.8817 16.1689C47.7049 13.939 51.0366 10.5485 52.7042 13.1291C53.2211 13.9285 53.7214 15.3485 53.5079 16.3337C53.2778 17.3891 52.294 18.1779 51.5402 18.8266C51.0433 19.2543 51.7704 19.9801 52.2606 19.5559C53.4479 18.5356 54.6685 17.3119 54.5552 15.5623C54.4618 14.1318 53.708 12.2455 52.5208 11.4601C49.9861 9.78068 46.6777 13.6269 46.8811 16.1935C46.9345 16.8631 47.935 16.8456 47.8817 16.1689Z" fill="#727272"/>
<path d="M52.5274 19.7908C53.7814 19.0089 57.0264 19.2158 56.6896 21.4738C56.3694 23.6266 53.718 23.7142 52.1472 23.7353C51.5035 23.7423 51.5236 24.7941 52.1672 24.7871C54.3717 24.7591 58.2271 24.0298 57.6768 20.7515C57.2432 18.178 53.7881 17.7783 52.0038 18.8932C51.4502 19.2403 51.9705 20.1379 52.5274 19.7908Z" fill="#727272"/>
<path d="M51.5202 24.9798C53.2745 25.7933 55.2488 28.209 53.5813 30.1584C51.6303 32.4375 48.8088 30.183 48.0884 27.9846C47.8783 27.3465 46.9178 27.641 47.1279 28.2862C48.0618 31.1261 51.4268 33.5805 54.0215 31.1717C56.5429 28.8331 54.5385 25.2358 52.0072 24.0577C51.4235 23.7877 50.9333 24.7064 51.5202 24.9798Z" fill="#727272"/>
<path d="M46.6477 28.2476C46.7377 30.0147 46.2675 32.6443 44.0063 32.3288C42.9791 32.185 42.1887 31.2138 42.2354 30.1129C42.2754 29.1241 42.9391 27.9706 43.3026 27.066C43.5494 26.4489 42.6789 25.93 42.4288 26.5541C41.8985 27.8795 40.9781 29.4257 41.3182 30.9228C41.595 32.1359 42.5055 33.1001 43.6728 33.3421C46.651 33.9627 47.7749 30.7335 47.6482 28.2231C47.6149 27.5499 46.6143 27.5674 46.6477 28.2476Z" fill="#727272"/>
<path d="M43.1659 25.7583C41.3016 26.5682 38.4234 26.3613 37.773 23.9035C37.4896 22.8236 37.8064 21.5474 38.7702 20.9618C39.7074 20.3938 40.918 20.5446 41.9386 20.6743C42.5689 20.755 42.8223 19.7347 42.1853 19.654C40.7713 19.4752 39.1671 19.3174 37.9498 20.2711C36.9393 21.0635 36.5291 22.4519 36.7225 23.7317C37.2228 27.038 40.9013 27.869 43.4493 26.7645C44.043 26.5121 43.7628 25.4988 43.1659 25.7583Z" fill="#727272"/>
<path d="M42.5455 19.7732C40.8613 18.8265 39.9809 15.3484 41.4583 13.8443C43.3993 11.8703 45.7839 14.6682 46.9578 16.1829C47.3647 16.7053 48.0517 15.9445 47.6515 15.4256C46.1174 13.4481 42.799 10.4223 40.5312 13.2728C38.8636 15.373 39.8608 19.4576 42.0586 20.6953C42.6256 21.0144 43.1158 20.0958 42.5455 19.7732Z" fill="#727272"/>
<path d="M44.153 27.5043C43.3626 28.3037 42.849 30.4671 44.063 31.1227C45.5171 31.9116 46.1608 29.2294 46.3542 28.2617C46.4409 27.8199 45.7939 27.6481 45.7072 28.0899C45.6205 28.5281 45.5104 28.9594 45.357 29.3801C45.2803 29.587 45.1969 29.7939 45.0969 29.9902C44.9435 30.2953 44.8534 30.4916 44.4999 30.4495C43.5461 30.3268 44.1997 28.43 44.6366 27.9917C44.9435 27.6761 44.4632 27.1923 44.153 27.5043Z" fill="#727272"/>
<path d="M48.452 27.5534C48.2819 28.5631 49.3691 29.3555 50.1462 29.7167C50.9333 30.0813 52.0305 30.204 52.7675 29.6325C53.4712 29.0856 53.3612 28.0933 53.0577 27.336C52.6441 26.3052 51.7937 25.6109 50.8099 25.2463C50.403 25.0955 50.2429 25.7792 50.6464 25.9265C51.2401 26.1474 51.7737 26.519 52.1506 27.059C52.2806 27.2483 52.3807 27.4482 52.4641 27.6656C52.6575 28.1775 52.6875 28.4089 52.344 28.8542C52.0505 29.2328 51.8971 29.3205 51.4502 29.324C51.17 29.324 50.8799 29.2644 50.6164 29.1662C50.2129 29.0154 48.9956 28.3493 49.099 27.7322C49.1723 27.2834 48.5287 27.1081 48.452 27.5534Z" fill="#727272"/>
<path d="M52.3207 23.0165C53.1578 23.2374 53.9915 22.8588 54.6952 22.3924C55.2088 22.0523 55.8858 21.4318 55.8258 20.713C55.7758 20.1134 55.2088 19.8294 54.7019 19.7663C53.8281 19.6541 52.971 20.0503 52.2606 20.5482C51.9038 20.7971 52.2506 21.4002 52.6075 21.1478C52.9777 20.8848 53.3712 20.6534 53.8081 20.5377C54.2116 20.429 55.3856 20.2537 55.0287 21.1337C54.7152 21.9156 53.1944 22.5222 52.4841 22.3363C52.0672 22.2277 51.9038 22.9078 52.3207 23.0165Z" fill="#727272"/>
<path d="M49.209 16.4705C49.1557 15.9376 49.2624 15.4081 49.6292 15.0155C49.896 14.7244 50.5431 14.3388 50.9233 14.5632C51.2601 14.763 51.2368 15.6045 51.2368 15.9937C51.2334 16.5512 51.12 17.0806 50.9433 17.603C50.7999 18.0272 51.4469 18.1955 51.5903 17.7748C51.8771 16.9263 51.9771 16.0357 51.8404 15.1417C51.747 14.5281 51.647 13.918 50.99 13.8269C49.5359 13.62 48.4053 15.04 48.5487 16.488C48.5854 16.9298 49.2524 16.9193 49.209 16.4705Z" fill="#727272"/>
<path d="M43.0158 18.816C42.4989 18.1323 42.0553 16.8912 42.2287 16.0111C42.3321 15.4782 42.4522 15.3239 42.9791 15.2678C43.506 15.2117 43.6361 15.3765 44.0163 15.6991C44.4032 16.0251 44.78 16.3617 45.1636 16.6913C45.4937 16.9753 45.9573 16.4739 45.6238 16.1864C44.6833 15.373 43.1725 13.4972 41.9752 14.9242C41.0481 16.0321 41.6718 18.1639 42.4455 19.1842C42.709 19.5313 43.2826 19.1702 43.0158 18.816Z" fill="#727272"/>
<path d="M41.8185 21.5473C40.5178 21.0004 38.8203 22.217 39.0204 23.7527C39.2071 25.2078 41.4383 25.7477 42.4422 24.9273C42.7757 24.6538 42.4322 24.0507 42.0953 24.3277C41.5484 24.7765 40.1876 24.6573 39.7874 23.9876C39.2005 23.0164 40.6312 21.7928 41.4983 22.1609C41.8885 22.3257 42.2154 21.7156 41.8185 21.5473Z" fill="#727272"/>
</g>
<defs>
<clipPath id="clip0_4_3832">
<rect width="83" height="41.4359" fill="white" transform="translate(0 0.615479)"/>
</clipPath>
</defs>
</svg>
